<svg width="156" height="51" viewBox="0 0 156 51" fill="none" xmlns="http://www.w3.org/2000/svg">
<g filter="url(#filter0_d_4_208)">
<path d="M5.29999 17.3C5.29999 10.6726 10.6726 5.29999 17.3 5.29999H138.3C144.927 5.29999 150.3 10.6726 150.3 17.3V33.3C150.3 39.9274 144.927 45.3 138.3 45.3H17.3C10.6726 45.3 5.29999 39.9274 5.29999 33.3V17.3Z" fill="white"/>
</g>
<path d="M52.2129 32.48C50.4795 32.48 49.0929 32.0667 48.0529 31.24C47.0129 30.4133 46.4062 29.2333 46.2329 27.7H48.2929C48.4129 28.7 48.8129 29.46 49.4929 29.98C50.1729 30.5 51.0929 30.76 52.2529 30.76C53.2262 30.76 53.9595 30.58 54.4529 30.22C54.9595 29.86 55.2129 29.3467 55.2129 28.68C55.2129 28.08 55.0462 27.6067 54.7129 27.26C54.3795 26.9 53.8529 26.6067 53.1329 26.38L50.6329 25.58C49.3529 25.1667 48.4129 24.6467 47.8129 24.02C47.2129 23.3933 46.9129 22.6 46.9129 21.64C46.9129 20.8267 47.1129 20.1267 47.5129 19.54C47.9262 18.9533 48.4995 18.5 49.2329 18.18C49.9795 17.8467 50.8462 17.68 51.8329 17.68C53.3529 17.68 54.5662 18.0667 55.4729 18.84C56.3929 19.6 56.9195 20.66 57.0529 22.02H54.9929C54.8329 21.1133 54.4862 20.4533 53.9529 20.04C53.4195 19.6133 52.6862 19.4 51.7529 19.4C50.8729 19.4 50.1862 19.5733 49.6929 19.92C49.1995 20.2667 48.9529 20.7533 48.9529 21.38C48.9529 21.8867 49.1129 22.3133 49.4329 22.66C49.7662 22.9933 50.3129 23.28 51.0729 23.52L53.6929 24.36C54.9062 24.7467 55.7995 25.2733 56.3729 25.94C56.9595 26.6067 57.2529 27.4467 57.2529 28.46C57.2529 29.74 56.8129 30.7333 55.9329 31.44C55.0529 32.1333 53.8129 32.48 52.2129 32.48ZM63.8348 32.5C62.7948 32.5 61.8814 32.2733 61.0948 31.82C60.3081 31.3533 59.6948 30.72 59.2548 29.92C58.8148 29.1067 58.5948 28.1867 58.5948 27.16C58.5948 26.12 58.8148 25.2067 59.2548 24.42C59.7081 23.6333 60.3214 23.02 61.0948 22.58C61.8814 22.1267 62.7948 21.9 63.8348 21.9C64.8881 21.9 65.8081 22.1267 66.5948 22.58C67.3814 23.02 67.9881 23.6333 68.4148 24.42C68.8548 25.2067 69.0748 26.12 69.0748 27.16C69.0748 28.1867 68.8548 29.1067 68.4148 29.92C67.9881 30.72 67.3814 31.3533 66.5948 31.82C65.8081 32.2733 64.8881 32.5 63.8348 32.5ZM63.8348 30.8C64.4614 30.8 65.0014 30.6467 65.4548 30.34C65.9214 30.0333 66.2881 29.6067 66.5548 29.06C66.8214 28.5133 66.9548 27.8733 66.9548 27.14C66.9548 26.0467 66.6614 25.1867 66.0748 24.56C65.5014 23.92 64.7548 23.6 63.8348 23.6C62.9281 23.6 62.1814 23.92 61.5948 24.56C61.0214 25.2 60.7348 26.06 60.7348 27.14C60.7348 27.8733 60.8614 28.5133 61.1148 29.06C61.3814 29.6067 61.7481 30.0333 62.2148 30.34C62.6948 30.6467 63.2348 30.8 63.8348 30.8ZM71.2112 32.3V22.1H73.1912V24.5H73.2912V32.3H71.2112ZM78.4512 32.3V25.74C78.4512 25.0333 78.2712 24.5067 77.9112 24.16C77.5645 23.8133 77.0445 23.64 76.3512 23.64C75.7512 23.64 75.2178 23.7733 74.7512 24.04C74.2978 24.3067 73.9378 24.6733 73.6712 25.14C73.4178 25.6067 73.2912 26.16 73.2912 26.8L73.0312 24.36C73.3645 23.6 73.8778 23 74.5712 22.56C75.2645 22.12 76.0712 21.9 76.9912 21.9C78.0845 21.9 78.9445 22.2067 79.5712 22.82C80.1978 23.4333 80.5112 24.2467 80.5112 25.26V32.3H78.4512ZM87.6005 36.6C86.3205 36.6 85.2605 36.3067 84.4205 35.72C83.5939 35.1467 83.0939 34.38 82.9205 33.42H84.8805C85.0139 33.86 85.3072 34.2067 85.7605 34.46C86.2272 34.7133 86.8472 34.84 87.6205 34.84C88.6205 34.84 89.3672 34.5933 89.8605 34.1C90.3539 33.6067 90.6005 32.8733 90.6005 31.9V29.7L90.7805 29.74C90.5805 30.5133 90.1472 31.1267 89.4805 31.58C88.8139 32.02 88.0139 32.24 87.0805 32.24C86.1872 32.24 85.4005 32.0267 84.7205 31.6C84.0405 31.1733 83.5139 30.58 83.1405 29.82C82.7672 29.0467 82.5805 28.1467 82.5805 27.12C82.5805 26.08 82.7739 25.1667 83.1605 24.38C83.5472 23.5933 84.0872 22.9867 84.7805 22.56C85.4872 22.1333 86.3072 21.92 87.2405 21.92C88.2005 21.92 88.9939 22.1533 89.6205 22.62C90.2605 23.0733 90.6672 23.72 90.8405 24.56L90.6805 24.58V22.1H92.6605V31.88C92.6605 33.3467 92.2072 34.5 91.3005 35.34C90.4072 36.18 89.1739 36.6 87.6005 36.6ZM87.7005 30.56C88.5939 30.56 89.3072 30.2467 89.8405 29.62C90.3872 28.9933 90.6605 28.1333 90.6605 27.04C90.6605 25.9733 90.3872 25.1333 89.8405 24.52C89.3072 23.9067 88.5872 23.6 87.6805 23.6C86.7739 23.6 86.0539 23.9133 85.5205 24.54C84.9872 25.1533 84.7205 26.0067 84.7205 27.1C84.7205 28.1667 84.9872 29.0133 85.5205 29.64C86.0672 30.2533 86.7939 30.56 87.7005 30.56ZM98.7715 32.3V30.56C100.171 29.4133 101.338 28.4133 102.271 27.56C103.218 26.7067 103.971 25.9467 104.531 25.28C105.091 24.6133 105.491 24.0067 105.731 23.46C105.971 22.9133 106.091 22.3667 106.091 21.82C106.091 21.0733 105.871 20.4933 105.431 20.08C105.005 19.6533 104.411 19.44 103.651 19.44C102.865 19.44 102.225 19.6733 101.731 20.14C101.238 20.5933 100.931 21.24 100.811 22.08H98.6515C98.7848 20.76 99.2981 19.7 100.191 18.9C101.098 18.1 102.291 17.7 103.771 17.7C105.185 17.7 106.298 18.0733 107.111 18.82C107.938 19.5667 108.351 20.5933 108.351 21.9C108.351 22.5667 108.225 23.2333 107.971 23.9C107.731 24.5533 107.331 25.24 106.771 25.96C106.211 26.6667 105.458 27.4533 104.511 28.32C103.578 29.1733 102.418 30.1467 101.031 31.24L100.531 30.56H108.611V32.3H98.7715Z" fill="black"/>
<defs>
<filter id="filter0_d_4_208" x="-1.23978e-05" y="-1.23978e-05" width="155.6" height="50.6" filterUnits="userSpaceOnUse" color-interpolation-filters="sRGB">
<feFlood flood-opacity="0" result="BackgroundImageFix"/>
<feColorMatrix in="SourceAlpha" type="matrix" values="0 0 0 0 0 0 0 0 0 0 0 0 0 0 0 0 0 0 127 0" result="hardAlpha"/>
<feOffset/>
<feGaussianBlur stdDeviation="2.65"/>
<feComposite in2="hardAlpha" operator="out"/>
<feColorMatrix type="matrix" values="0 0 0 0 1 0 0 0 0 1 0 0 0 0 1 0 0 0 1 0"/>
<feBlend mode="normal" in2="BackgroundImageFix" result="effect1_dropShadow_4_208"/>
<feBlend mode="normal" in="SourceGraphic" in2="effect1_dropShadow_4_208" result="shape"/>
</filter>
</defs>
</svg>
