<svg width="175" height="43" viewBox="0 0 175 43" fill="none" xmlns="http://www.w3.org/2000/svg">
<g filter="url(#filter0_d_4_228)">
<rect x="5.30005" y="5.29999" width="164.065" height="32.1886" rx="6" fill="#0F130F"/>
</g>
<path d="M71.5754 29.0592V14.6592H73.6954V29.0592H71.5754ZM76.6335 29.0592V18.8592H78.6135V21.2592H78.7135V29.0592H76.6335ZM83.8735 29.0592V22.4992C83.8735 21.7925 83.6935 21.2659 83.3335 20.9192C82.9868 20.5725 82.4668 20.3992 81.7735 20.3992C81.1735 20.3992 80.6402 20.5325 80.1735 20.7992C79.7202 21.0659 79.3602 21.4325 79.0935 21.8992C78.8402 22.3659 78.7135 22.9192 78.7135 23.5592L78.4535 21.1192C78.7868 20.3592 79.3002 19.7592 79.9935 19.3192C80.6868 18.8792 81.4935 18.6592 82.4135 18.6592C83.5068 18.6592 84.3668 18.9659 84.9935 19.5792C85.6202 20.1925 85.9335 21.0059 85.9335 22.0192V29.0592H83.8735ZM89.2699 29.0592V17.6792C89.2699 16.6392 89.5632 15.8459 90.1499 15.2992C90.7366 14.7392 91.6166 14.4592 92.7899 14.4592C93.0566 14.4592 93.2766 14.4725 93.4499 14.4992C93.6232 14.5259 93.7766 14.5659 93.9099 14.6192V16.2192C93.8166 16.1925 93.6899 16.1659 93.5299 16.1392C93.3832 16.1125 93.2166 16.0992 93.0299 16.0992C92.4432 16.0992 92.0166 16.2459 91.7499 16.5392C91.4832 16.8192 91.3499 17.2192 91.3499 17.7392V29.0592H89.2699ZM87.3099 20.5192V18.8592H93.6899V20.5192H87.3099ZM99.7258 29.2592C98.6858 29.2592 97.7725 29.0325 96.9858 28.5792C96.1992 28.1125 95.5858 27.4792 95.1458 26.6792C94.7058 25.8659 94.4858 24.9459 94.4858 23.9192C94.4858 22.8792 94.7058 21.9659 95.1458 21.1792C95.5992 20.3925 96.2125 19.7792 96.9858 19.3392C97.7725 18.8859 98.6858 18.6592 99.7258 18.6592C100.779 18.6592 101.699 18.8859 102.486 19.3392C103.273 19.7792 103.879 20.3925 104.306 21.1792C104.746 21.9659 104.966 22.8792 104.966 23.9192C104.966 24.9459 104.746 25.8659 104.306 26.6792C103.879 27.4792 103.273 28.1125 102.486 28.5792C101.699 29.0325 100.779 29.2592 99.7258 29.2592ZM99.7258 27.5592C100.353 27.5592 100.893 27.4059 101.346 27.0992C101.813 26.7925 102.179 26.3659 102.446 25.8192C102.713 25.2725 102.846 24.6325 102.846 23.8992C102.846 22.8059 102.553 21.9459 101.966 21.3192C101.393 20.6792 100.646 20.3592 99.7258 20.3592C98.8192 20.3592 98.0725 20.6792 97.4858 21.3192C96.9125 21.9592 96.6258 22.8192 96.6258 23.8992C96.6258 24.6325 96.7525 25.2725 97.0058 25.8192C97.2725 26.3659 97.6392 26.7925 98.1058 27.0992C98.5858 27.4059 99.1258 27.5592 99.7258 27.5592Z" fill="white"/>
<defs>
<filter id="filter0_d_4_228" x="4.86374e-05" y="-1.23978e-05" width="174.665" height="42.7886" filterUnits="userSpaceOnUse" color-interpolation-filters="sRGB">
<feFlood flood-opacity="0" result="BackgroundImageFix"/>
<feColorMatrix in="SourceAlpha" type="matrix" values="0 0 0 0 0 0 0 0 0 0 0 0 0 0 0 0 0 0 127 0" result="hardAlpha"/>
<feOffset/>
<feGaussianBlur stdDeviation="2.65"/>
<feComposite in2="hardAlpha" operator="out"/>
<feColorMatrix type="matrix" values="0 0 0 0 0 0 0 0 0 0 0 0 0 0 0 0 0 0 1 0"/>
<feBlend mode="normal" in2="BackgroundImageFix" result="effect1_dropShadow_4_228"/>
<feBlend mode="normal" in="SourceGraphic" in2="effect1_dropShadow_4_228" result="shape"/>
</filter>
</defs>
</svg>
