<svg width="391" height="78" viewBox="0 0 391 78" fill="none" xmlns="http://www.w3.org/2000/svg">
<g filter="url(#filter0_d_4_199)">
<path d="M165.312 62L182.656 15.92H188.544L171.968 62H165.312ZM200.96 62L184.384 15.92H190.592L208 62H200.96ZM174.08 43.632H198.784V49.264H174.08V43.632ZM214.749 62V29.36H221.085V37.488H221.405V62H214.749ZM221.405 44.976L220.573 37.232C221.341 34.4587 222.663 32.3467 224.541 30.896C226.418 29.4453 228.658 28.72 231.261 28.72C232.242 28.72 232.925 28.8053 233.309 28.976V35.248C233.095 35.1627 232.797 35.12 232.413 35.12C232.029 35.0773 231.559 35.056 231.005 35.056C227.805 35.056 225.394 35.888 223.773 37.552C222.194 39.216 221.405 41.6907 221.405 44.976ZM253.269 62.64C249.941 62.64 247.018 61.9147 244.501 60.464C241.984 58.9707 240.021 56.944 238.613 54.384C237.205 51.7813 236.501 48.8373 236.501 45.552C236.501 42.224 237.205 39.3013 238.613 36.784C240.064 34.2667 242.026 32.304 244.501 30.896C247.018 29.4453 249.941 28.72 253.269 28.72C256.64 28.72 259.584 29.4453 262.101 30.896C264.618 32.304 266.56 34.2667 267.925 36.784C269.333 39.3013 270.037 42.224 270.037 45.552C270.037 48.8373 269.333 51.7813 267.925 54.384C266.56 56.944 264.618 58.9707 262.101 60.464C259.584 61.9147 256.64 62.64 253.269 62.64ZM253.269 57.2C255.274 57.2 257.002 56.7093 258.453 55.728C259.946 54.7467 261.12 53.3813 261.973 51.632C262.826 49.8827 263.253 47.8347 263.253 45.488C263.253 41.9893 262.314 39.2373 260.437 37.232C258.602 35.184 256.213 34.16 253.269 34.16C250.368 34.16 247.978 35.184 246.101 37.232C244.266 39.28 243.349 42.032 243.349 45.488C243.349 47.8347 243.754 49.8827 244.565 51.632C245.418 53.3813 246.592 54.7467 248.085 55.728C249.621 56.7093 251.349 57.2 253.269 57.2ZM287.498 62.64C285.322 62.64 283.402 62.192 281.738 61.296C280.074 60.3573 278.772 59.0773 277.834 57.456C276.938 55.8347 276.49 53.9787 276.49 51.888V29.36H283.146V50.352C283.146 52.6133 283.7 54.2987 284.81 55.408C285.919 56.5173 287.498 57.072 289.546 57.072C291.38 57.072 293.002 56.6453 294.41 55.792C295.86 54.9387 296.991 53.7653 297.802 52.272C298.655 50.736 299.082 48.9653 299.082 46.96L299.914 54.768C298.847 57.1573 297.204 59.0773 294.986 60.528C292.81 61.936 290.314 62.64 287.498 62.64ZM299.338 62V54.32H299.082V29.36H305.674V62H299.338ZM314.999 62V29.36H321.335V37.04H321.655V62H314.999ZM338.167 62V41.008C338.167 38.7467 337.591 37.0613 336.439 35.952C335.329 34.8427 333.665 34.288 331.447 34.288C329.527 34.288 327.82 34.7147 326.327 35.568C324.876 36.4213 323.724 37.5947 322.871 39.088C322.06 40.5813 321.655 42.352 321.655 44.4L320.823 36.592C321.889 34.16 323.532 32.24 325.751 30.832C327.969 29.424 330.551 28.72 333.495 28.72C336.993 28.72 339.745 29.7013 341.751 31.664C343.756 33.6267 344.759 36.2293 344.759 39.472V62H338.167ZM377.363 62V54.512L378.003 54.704C377.32 57.136 375.912 59.0773 373.779 60.528C371.646 61.936 369.086 62.64 366.099 62.64C363.155 62.64 360.574 61.936 358.355 60.528C356.179 59.12 354.472 57.1573 353.235 54.64C352.04 52.1227 351.443 49.1787 351.443 45.808C351.443 42.3947 352.062 39.408 353.299 36.848C354.536 34.288 356.264 32.304 358.483 30.896C360.702 29.488 363.304 28.784 366.291 28.784C369.406 28.784 371.966 29.5307 373.971 31.024C376.019 32.4747 377.363 34.5227 378.003 37.168L377.107 37.296V15.92H383.699V62H377.363ZM367.763 57.072C370.707 57.072 373.032 56.0693 374.739 54.064C376.446 52.016 377.299 49.2 377.299 45.616C377.299 42.1173 376.424 39.3653 374.675 37.36C372.968 35.312 370.643 34.288 367.699 34.288C364.798 34.288 362.494 35.312 360.787 37.36C359.123 39.3653 358.291 42.1813 358.291 45.808C358.291 49.3493 359.123 52.1227 360.787 54.128C362.494 56.0907 364.819 57.072 367.763 57.072Z" fill="#CB3636"/>
</g>
<g filter="url(#filter1_d_4_199)">
<path d="M7.00001 62V15.92H14.872L39.32 55.344L37.784 55.664V15.92H44.312V62H36.44L11.992 22.576L13.528 22.256V62H7.00001ZM67.9565 62.64C64.6285 62.64 61.7058 61.9147 59.1885 60.464C56.6712 58.9707 54.7085 56.944 53.3005 54.384C51.8925 51.7813 51.1885 48.8373 51.1885 45.552C51.1885 42.224 51.8925 39.3013 53.3005 36.784C54.7512 34.2667 56.7138 32.304 59.1885 30.896C61.7058 29.4453 64.6285 28.72 67.9565 28.72C71.3272 28.72 74.2712 29.4453 76.7885 30.896C79.3058 32.304 81.2472 34.2667 82.6125 36.784C84.0205 39.3013 84.7245 42.224 84.7245 45.552C84.7245 48.8373 84.0205 51.7813 82.6125 54.384C81.2472 56.944 79.3058 58.9707 76.7885 60.464C74.2712 61.9147 71.3272 62.64 67.9565 62.64ZM67.9565 57.2C69.9618 57.2 71.6898 56.7093 73.1405 55.728C74.6338 54.7467 75.8072 53.3813 76.6605 51.632C77.5138 49.8827 77.9405 47.8347 77.9405 45.488C77.9405 41.9893 77.0018 39.2373 75.1245 37.232C73.2898 35.184 70.9005 34.16 67.9565 34.16C65.0552 34.16 62.6658 35.184 60.7885 37.232C58.9538 39.28 58.0365 42.032 58.0365 45.488C58.0365 47.8347 58.4418 49.8827 59.2525 51.632C60.1058 53.3813 61.2792 54.7467 62.7725 55.728C64.3085 56.7093 66.0365 57.2 67.9565 57.2ZM104.949 62.64C101.152 62.64 98.357 61.7653 96.565 60.016C94.8157 58.224 93.941 55.6 93.941 52.144V21.872L100.533 19.376V52.208C100.533 53.9147 100.981 55.1733 101.877 55.984C102.773 56.7947 104.224 57.2 106.229 57.2C106.997 57.2 107.68 57.136 108.277 57.008C108.874 56.88 109.386 56.7307 109.813 56.56V61.936C109.344 62.1493 108.682 62.32 107.829 62.448C106.976 62.576 106.016 62.64 104.949 62.64ZM87.413 34.672V29.36H109.813V34.672H87.413ZM129.391 62.64C126.106 62.64 123.204 61.9147 120.687 60.464C118.212 59.0133 116.271 57.008 114.863 54.448C113.455 51.888 112.751 48.944 112.751 45.616C112.751 42.2453 113.434 39.3013 114.799 36.784C116.207 34.224 118.17 32.24 120.687 30.832C123.204 29.424 126.084 28.72 129.327 28.72C132.484 28.72 135.215 29.4027 137.519 30.768C139.866 32.0907 141.658 33.9467 142.895 36.336C144.175 38.7253 144.815 41.5627 144.815 44.848C144.815 45.36 144.794 45.8507 144.751 46.32C144.751 46.7467 144.708 47.1947 144.623 47.664H117.231V42.672H139.951L138.287 44.656C138.287 41.1573 137.498 38.4907 135.919 36.656C134.34 34.8213 132.143 33.904 129.327 33.904C126.298 33.904 123.887 34.9493 122.095 37.04C120.346 39.088 119.471 41.9467 119.471 45.616C119.471 49.328 120.346 52.2293 122.095 54.32C123.887 56.4107 126.362 57.456 129.519 57.456C131.439 57.456 133.103 57.072 134.511 56.304C135.919 55.4933 136.964 54.32 137.647 52.784H143.919C142.852 55.856 141.039 58.2667 138.479 60.016C135.962 61.7653 132.932 62.64 129.391 62.64Z" fill="#16FF73"/>
</g>
<defs>
<filter id="filter0_d_4_199" x="158.312" y="8.91998" width="232.387" height="60.72" filterUnits="userSpaceOnUse" color-interpolation-filters="sRGB">
<feFlood flood-opacity="0" result="BackgroundImageFix"/>
<feColorMatrix in="SourceAlpha" type="matrix" values="0 0 0 0 0 0 0 0 0 0 0 0 0 0 0 0 0 0 127 0" result="hardAlpha"/>
<feOffset/>
<feGaussianBlur stdDeviation="3.5"/>
<feComposite in2="hardAlpha" operator="out"/>
<feColorMatrix type="matrix" values="0 0 0 0 0.796078 0 0 0 0 0.211765 0 0 0 0 0.211765 0 0 0 1 0"/>
<feBlend mode="normal" in2="BackgroundImageFix" result="effect1_dropShadow_4_199"/>
<feBlend mode="normal" in="SourceGraphic" in2="effect1_dropShadow_4_199" result="shape"/>
</filter>
<filter id="filter1_d_4_199" x="0" y="8.91998" width="151.815" height="60.72" filterUnits="userSpaceOnUse" color-interpolation-filters="sRGB">
<feFlood flood-opacity="0" result="BackgroundImageFix"/>
<feColorMatrix in="SourceAlpha" type="matrix" values="0 0 0 0 0 0 0 0 0 0 0 0 0 0 0 0 0 0 127 0" result="hardAlpha"/>
<feOffset/>
<feGaussianBlur stdDeviation="3.5"/>
<feComposite in2="hardAlpha" operator="out"/>
<feColorMatrix type="matrix" values="0 0 0 0 0.0846153 0 0 0 0 1 0 0 0 0 0.450769 0 0 0 1 0"/>
<feBlend mode="normal" in2="BackgroundImageFix" result="effect1_dropShadow_4_199"/>
<feBlend mode="normal" in="SourceGraphic" in2="effect1_dropShadow_4_199" result="shape"/>
</filter>
</defs>
</svg>
