<svg width="270" height="62" viewBox="0 0 270 62" fill="none" xmlns="http://www.w3.org/2000/svg">
<g filter="url(#filter0_d_19_2)">
<rect x="5.29999" y="5.29999" width="259.341" height="50.8811" rx="6" fill="white"/>
</g>
<path d="M105.793 42.3V19.26H115.553C117.217 19.26 118.636 19.5373 119.809 20.092C120.982 20.6467 121.878 21.436 122.497 22.46C123.137 23.484 123.457 24.7 123.457 26.108C123.457 27.5373 123.137 28.7747 122.497 29.82C121.878 30.844 120.972 31.644 119.777 32.22C118.604 32.796 117.196 33.084 115.553 33.084H108.385V30.268H115.393C116.908 30.268 118.06 29.9053 118.849 29.18C119.66 28.4547 120.065 27.4413 120.065 26.14C120.065 24.8173 119.67 23.804 118.881 23.1C118.092 22.396 116.929 22.044 115.393 22.044H109.185V42.3H105.793ZM126.917 42.3V19.26H130.245V42.3H126.917ZM145.029 42.3C144.923 41.8947 144.848 41.4467 144.805 40.956C144.784 40.4653 144.773 39.868 144.773 39.164H144.613V31.388C144.613 30.3427 144.347 29.564 143.813 29.052C143.301 28.5187 142.48 28.252 141.349 28.252C140.261 28.252 139.387 28.4653 138.725 28.892C138.085 29.3187 137.712 29.9267 137.605 30.716H134.437C134.587 29.18 135.28 27.9533 136.517 27.036C137.755 26.1187 139.408 25.66 141.477 25.66C143.611 25.66 145.211 26.1613 146.277 27.164C147.344 28.1453 147.877 29.596 147.877 31.516V39.164C147.877 39.6547 147.909 40.156 147.973 40.668C148.037 41.18 148.133 41.724 148.261 42.3H145.029ZM139.397 42.62C137.733 42.62 136.411 42.2147 135.429 41.404C134.448 40.572 133.957 39.452 133.957 38.044C133.957 36.5933 134.469 35.452 135.493 34.62C136.539 33.7667 138.032 33.1907 139.973 32.892L145.349 32.028V34.364L140.485 35.132C139.397 35.3027 138.576 35.5907 138.021 35.996C137.488 36.4013 137.221 36.988 137.221 37.756C137.221 38.5027 137.467 39.068 137.957 39.452C138.469 39.8147 139.205 39.996 140.165 39.996C141.445 39.996 142.501 39.6867 143.333 39.068C144.187 38.4493 144.613 37.6707 144.613 36.732L145.029 39.1C144.645 40.2307 143.963 41.1053 142.981 41.724C142 42.3213 140.805 42.62 139.397 42.62ZM152.758 48.86L156.694 39.868L157.366 38.812L162.326 25.98H165.782L156.182 48.86H152.758ZM156.534 42.3L149.558 25.98H153.174L159.094 40.668L156.534 42.3Z" fill="black"/>
<defs>
<filter id="filter0_d_19_2" x="-1.23978e-05" y="-1.23978e-05" width="269.941" height="61.4811" filterUnits="userSpaceOnUse" color-interpolation-filters="sRGB">
<feFlood flood-opacity="0" result="BackgroundImageFix"/>
<feColorMatrix in="SourceAlpha" type="matrix" values="0 0 0 0 0 0 0 0 0 0 0 0 0 0 0 0 0 0 127 0" result="hardAlpha"/>
<feOffset/>
<feGaussianBlur stdDeviation="2.65"/>
<feComposite in2="hardAlpha" operator="out"/>
<feColorMatrix type="matrix" values="0 0 0 0 1 0 0 0 0 1 0 0 0 0 1 0 0 0 1 0"/>
<feBlend mode="normal" in2="BackgroundImageFix" result="effect1_dropShadow_19_2"/>
<feBlend mode="normal" in="SourceGraphic" in2="effect1_dropShadow_19_2" result="shape"/>
</filter>
</defs>
</svg>
