<svg width="270" height="62" viewBox="0 0 270 62" fill="none" xmlns="http://www.w3.org/2000/svg">
<g filter="url(#filter0_d_4_202)">
<rect x="5.29999" y="5.29999" width="259.341" height="50.8811" rx="6" fill="white"/>
</g>
<path d="M108.741 42.9925V19.9525H112.133V42.9925H108.741ZM116.834 42.9925V26.6725H120.002V30.5125H120.162V42.9925H116.834ZM128.418 42.9925V32.4965C128.418 31.3658 128.13 30.5232 127.554 29.9685C127 29.4138 126.168 29.1365 125.058 29.1365C124.098 29.1365 123.245 29.3498 122.498 29.7765C121.773 30.2032 121.197 30.7898 120.77 31.5365C120.365 32.2832 120.162 33.1685 120.162 34.1925L119.746 30.2885C120.28 29.0725 121.101 28.1125 122.21 27.4085C123.32 26.7045 124.61 26.3525 126.082 26.3525C127.832 26.3525 129.208 26.8432 130.21 27.8245C131.213 28.8058 131.714 30.1072 131.714 31.7285V42.9925H128.418ZM137.052 42.9925V24.7845C137.052 23.1205 137.522 21.8512 138.46 20.9765C139.399 20.0805 140.807 19.6325 142.684 19.6325C143.111 19.6325 143.463 19.6538 143.74 19.6965C144.018 19.7392 144.263 19.8032 144.476 19.8885V22.4485C144.327 22.4058 144.124 22.3632 143.868 22.3205C143.634 22.2778 143.367 22.2565 143.068 22.2565C142.13 22.2565 141.447 22.4912 141.02 22.9605C140.594 23.4085 140.38 24.0485 140.38 24.8805V42.9925H137.052ZM133.916 29.3285V26.6725H144.124V29.3285H133.916ZM153.782 43.3125C152.118 43.3125 150.657 42.9498 149.398 42.2245C148.139 41.4778 147.158 40.4645 146.454 39.1845C145.75 37.8832 145.398 36.4112 145.398 34.7685C145.398 33.1045 145.75 31.6432 146.454 30.3845C147.179 29.1258 148.161 28.1445 149.398 27.4405C150.657 26.7152 152.118 26.3525 153.782 26.3525C155.467 26.3525 156.939 26.7152 158.198 27.4405C159.457 28.1445 160.427 29.1258 161.11 30.3845C161.814 31.6432 162.166 33.1045 162.166 34.7685C162.166 36.4112 161.814 37.8832 161.11 39.1845C160.427 40.4645 159.457 41.4778 158.198 42.2245C156.939 42.9498 155.467 43.3125 153.782 43.3125ZM153.782 40.5925C154.785 40.5925 155.649 40.3472 156.374 39.8565C157.121 39.3658 157.707 38.6832 158.134 37.8085C158.561 36.9338 158.774 35.9098 158.774 34.7365C158.774 32.9872 158.305 31.6112 157.366 30.6085C156.449 29.5845 155.254 29.0725 153.782 29.0725C152.331 29.0725 151.137 29.5845 150.198 30.6085C149.281 31.6325 148.822 33.0085 148.822 34.7365C148.822 35.9098 149.025 36.9338 149.43 37.8085C149.857 38.6832 150.443 39.3658 151.19 39.8565C151.958 40.3472 152.822 40.5925 153.782 40.5925Z" fill="black"/>
<defs>
<filter id="filter0_d_4_202" x="-1.23978e-05" y="-1.23978e-05" width="269.941" height="61.4811" filterUnits="userSpaceOnUse" color-interpolation-filters="sRGB">
<feFlood flood-opacity="0" result="BackgroundImageFix"/>
<feColorMatrix in="SourceAlpha" type="matrix" values="0 0 0 0 0 0 0 0 0 0 0 0 0 0 0 0 0 0 127 0" result="hardAlpha"/>
<feOffset/>
<feGaussianBlur stdDeviation="2.65"/>
<feComposite in2="hardAlpha" operator="out"/>
<feColorMatrix type="matrix" values="0 0 0 0 1 0 0 0 0 1 0 0 0 0 1 0 0 0 1 0"/>
<feBlend mode="normal" in2="BackgroundImageFix" result="effect1_dropShadow_4_202"/>
<feBlend mode="normal" in="SourceGraphic" in2="effect1_dropShadow_4_202" result="shape"/>
</filter>
</defs>
</svg>
