<svg width="156" height="51" viewBox="0 0 156 51" fill="none" xmlns="http://www.w3.org/2000/svg">
<g filter="url(#filter0_d_4_231)">
<path d="M5.30005 17.3C5.30005 10.6726 10.6726 5.29999 17.3 5.29999H138.3C144.927 5.29999 150.3 10.6726 150.3 17.3V33.3C150.3 39.9274 144.927 45.3 138.3 45.3H17.3C10.6726 45.3 5.30005 39.9274 5.30005 33.3V17.3Z" fill="#0F130F"/>
</g>
<path d="M54.334 32.48C52.6007 32.48 51.214 32.0667 50.174 31.24C49.134 30.4133 48.5274 29.2333 48.354 27.7H50.414C50.534 28.7 50.934 29.46 51.614 29.98C52.294 30.5 53.214 30.76 54.374 30.76C55.3474 30.76 56.0807 30.58 56.574 30.22C57.0807 29.86 57.334 29.3467 57.334 28.68C57.334 28.08 57.1674 27.6067 56.834 27.26C56.5007 26.9 55.974 26.6067 55.254 26.38L52.754 25.58C51.474 25.1667 50.534 24.6467 49.934 24.02C49.334 23.3933 49.034 22.6 49.034 21.64C49.034 20.8267 49.234 20.1267 49.634 19.54C50.0474 18.9533 50.6207 18.5 51.354 18.18C52.1007 17.8467 52.9674 17.68 53.954 17.68C55.474 17.68 56.6874 18.0667 57.594 18.84C58.514 19.6 59.0407 20.66 59.174 22.02H57.114C56.954 21.1133 56.6074 20.4533 56.074 20.04C55.5407 19.6133 54.8074 19.4 53.874 19.4C52.994 19.4 52.3074 19.5733 51.814 19.92C51.3207 20.2667 51.074 20.7533 51.074 21.38C51.074 21.8867 51.234 22.3133 51.554 22.66C51.8874 22.9933 52.434 23.28 53.194 23.52L55.814 24.36C57.0274 24.7467 57.9207 25.2733 58.494 25.94C59.0807 26.6067 59.374 27.4467 59.374 28.46C59.374 29.74 58.934 30.7333 58.054 31.44C57.174 32.1333 55.934 32.48 54.334 32.48ZM65.9559 32.5C64.9159 32.5 64.0026 32.2733 63.2159 31.82C62.4292 31.3533 61.8159 30.72 61.3759 29.92C60.9359 29.1067 60.7159 28.1867 60.7159 27.16C60.7159 26.12 60.9359 25.2067 61.3759 24.42C61.8292 23.6333 62.4426 23.02 63.2159 22.58C64.0026 22.1267 64.9159 21.9 65.9559 21.9C67.0092 21.9 67.9292 22.1267 68.7159 22.58C69.5026 23.02 70.1092 23.6333 70.5359 24.42C70.9759 25.2067 71.1959 26.12 71.1959 27.16C71.1959 28.1867 70.9759 29.1067 70.5359 29.92C70.1092 30.72 69.5026 31.3533 68.7159 31.82C67.9292 32.2733 67.0092 32.5 65.9559 32.5ZM65.9559 30.8C66.5826 30.8 67.1226 30.6467 67.5759 30.34C68.0426 30.0333 68.4092 29.6067 68.6759 29.06C68.9426 28.5133 69.0759 27.8733 69.0759 27.14C69.0759 26.0467 68.7826 25.1867 68.1959 24.56C67.6226 23.92 66.8759 23.6 65.9559 23.6C65.0492 23.6 64.3026 23.92 63.7159 24.56C63.1426 25.2 62.8559 26.06 62.8559 27.14C62.8559 27.8733 62.9826 28.5133 63.2359 29.06C63.5026 29.6067 63.8692 30.0333 64.3359 30.34C64.8159 30.6467 65.3559 30.8 65.9559 30.8ZM73.3323 32.3V22.1H75.3123V24.5H75.4123V32.3H73.3323ZM80.5723 32.3V25.74C80.5723 25.0333 80.3923 24.5067 80.0323 24.16C79.6856 23.8133 79.1656 23.64 78.4723 23.64C77.8723 23.64 77.339 23.7733 76.8723 24.04C76.419 24.3067 76.059 24.6733 75.7923 25.14C75.539 25.6067 75.4123 26.16 75.4123 26.8L75.1523 24.36C75.4856 23.6 75.999 23 76.6923 22.56C77.3856 22.12 78.1923 21.9 79.1123 21.9C80.2056 21.9 81.0656 22.2067 81.6923 22.82C82.319 23.4333 82.6323 24.2467 82.6323 25.26V32.3H80.5723ZM89.7217 36.6C88.4417 36.6 87.3817 36.3067 86.5417 35.72C85.715 35.1467 85.215 34.38 85.0417 33.42H87.0017C87.135 33.86 87.4284 34.2067 87.8817 34.46C88.3484 34.7133 88.9684 34.84 89.7417 34.84C90.7417 34.84 91.4884 34.5933 91.9817 34.1C92.475 33.6067 92.7217 32.8733 92.7217 31.9V29.7L92.9017 29.74C92.7017 30.5133 92.2684 31.1267 91.6017 31.58C90.935 32.02 90.135 32.24 89.2017 32.24C88.3084 32.24 87.5217 32.0267 86.8417 31.6C86.1617 31.1733 85.635 30.58 85.2617 29.82C84.8884 29.0467 84.7017 28.1467 84.7017 27.12C84.7017 26.08 84.895 25.1667 85.2817 24.38C85.6684 23.5933 86.2084 22.9867 86.9017 22.56C87.6084 22.1333 88.4284 21.92 89.3617 21.92C90.3217 21.92 91.115 22.1533 91.7417 22.62C92.3817 23.0733 92.7884 23.72 92.9617 24.56L92.8017 24.58V22.1H94.7817V31.88C94.7817 33.3467 94.3284 34.5 93.4217 35.34C92.5284 36.18 91.295 36.6 89.7217 36.6ZM89.8217 30.56C90.715 30.56 91.4284 30.2467 91.9617 29.62C92.5084 28.9933 92.7817 28.1333 92.7817 27.04C92.7817 25.9733 92.5084 25.1333 91.9617 24.52C91.4284 23.9067 90.7084 23.6 89.8017 23.6C88.895 23.6 88.175 23.9133 87.6417 24.54C87.1084 25.1533 86.8417 26.0067 86.8417 27.1C86.8417 28.1667 87.1084 29.0133 87.6417 29.64C88.1884 30.2533 88.915 30.56 89.8217 30.56ZM104.433 32.3V19.88L104.813 20.04C104.639 20.4133 104.339 20.78 103.913 21.14C103.486 21.5 102.993 21.8133 102.433 22.08C101.873 22.3333 101.279 22.5133 100.653 22.62V20.58C101.239 20.4867 101.813 20.3133 102.373 20.06C102.933 19.7933 103.433 19.4733 103.873 19.1C104.313 18.7133 104.639 18.3133 104.853 17.9H106.493V32.3H104.433Z" fill="white"/>
<defs>
<filter id="filter0_d_4_231" x="4.86374e-05" y="-1.23978e-05" width="155.6" height="50.6" filterUnits="userSpaceOnUse" color-interpolation-filters="sRGB">
<feFlood flood-opacity="0" result="BackgroundImageFix"/>
<feColorMatrix in="SourceAlpha" type="matrix" values="0 0 0 0 0 0 0 0 0 0 0 0 0 0 0 0 0 0 127 0" result="hardAlpha"/>
<feOffset/>
<feGaussianBlur stdDeviation="2.65"/>
<feComposite in2="hardAlpha" operator="out"/>
<feColorMatrix type="matrix" values="0 0 0 0 0 0 0 0 0 0 0 0 0 0 0 0 0 0 1 0"/>
<feBlend mode="normal" in2="BackgroundImageFix" result="effect1_dropShadow_4_231"/>
<feBlend mode="normal" in="SourceGraphic" in2="effect1_dropShadow_4_231" result="shape"/>
</filter>
</defs>
</svg>
