<svg width="156" height="51" viewBox="0 0 156 51" fill="none" xmlns="http://www.w3.org/2000/svg">
<g filter="url(#filter0_d_4_234)">
<path d="M5.30005 17.3C5.30005 10.6726 10.6726 5.29999 17.3 5.29999H138.3C144.927 5.29999 150.3 10.6726 150.3 17.3V33.3C150.3 39.9274 144.927 45.3 138.3 45.3H17.3C10.6726 45.3 5.30005 39.9274 5.30005 33.3V17.3Z" fill="#0F130F"/>
</g>
<path d="M52.2129 32.48C50.4796 32.48 49.0929 32.0667 48.0529 31.24C47.0129 30.4133 46.4063 29.2333 46.2329 27.7H48.2929C48.4129 28.7 48.8129 29.46 49.4929 29.98C50.1729 30.5 51.0929 30.76 52.2529 30.76C53.2263 30.76 53.9596 30.58 54.4529 30.22C54.9596 29.86 55.2129 29.3467 55.2129 28.68C55.2129 28.08 55.0463 27.6067 54.7129 27.26C54.3796 26.9 53.8529 26.6067 53.1329 26.38L50.6329 25.58C49.3529 25.1667 48.4129 24.6467 47.8129 24.02C47.2129 23.3933 46.9129 22.6 46.9129 21.64C46.9129 20.8267 47.1129 20.1267 47.5129 19.54C47.9263 18.9533 48.4996 18.5 49.2329 18.18C49.9796 17.8467 50.8463 17.68 51.8329 17.68C53.3529 17.68 54.5663 18.0667 55.4729 18.84C56.3929 19.6 56.9196 20.66 57.0529 22.02H54.9929C54.8329 21.1133 54.4863 20.4533 53.9529 20.04C53.4196 19.6133 52.6863 19.4 51.7529 19.4C50.8729 19.4 50.1863 19.5733 49.6929 19.92C49.1996 20.2667 48.9529 20.7533 48.9529 21.38C48.9529 21.8867 49.1129 22.3133 49.4329 22.66C49.7663 22.9933 50.3129 23.28 51.0729 23.52L53.6929 24.36C54.9063 24.7467 55.7996 25.2733 56.3729 25.94C56.9596 26.6067 57.2529 27.4467 57.2529 28.46C57.2529 29.74 56.8129 30.7333 55.9329 31.44C55.0529 32.1333 53.8129 32.48 52.2129 32.48ZM63.8348 32.5C62.7948 32.5 61.8815 32.2733 61.0948 31.82C60.3081 31.3533 59.6948 30.72 59.2548 29.92C58.8148 29.1067 58.5948 28.1867 58.5948 27.16C58.5948 26.12 58.8148 25.2067 59.2548 24.42C59.7081 23.6333 60.3215 23.02 61.0948 22.58C61.8815 22.1267 62.7948 21.9 63.8348 21.9C64.8881 21.9 65.8081 22.1267 66.5948 22.58C67.3815 23.02 67.9881 23.6333 68.4148 24.42C68.8548 25.2067 69.0748 26.12 69.0748 27.16C69.0748 28.1867 68.8548 29.1067 68.4148 29.92C67.9881 30.72 67.3815 31.3533 66.5948 31.82C65.8081 32.2733 64.8881 32.5 63.8348 32.5ZM63.8348 30.8C64.4615 30.8 65.0015 30.6467 65.4548 30.34C65.9215 30.0333 66.2881 29.6067 66.5548 29.06C66.8215 28.5133 66.9548 27.8733 66.9548 27.14C66.9548 26.0467 66.6615 25.1867 66.0748 24.56C65.5015 23.92 64.7548 23.6 63.8348 23.6C62.9281 23.6 62.1815 23.92 61.5948 24.56C61.0215 25.2 60.7348 26.06 60.7348 27.14C60.7348 27.8733 60.8615 28.5133 61.1148 29.06C61.3815 29.6067 61.7481 30.0333 62.2148 30.34C62.6948 30.6467 63.2348 30.8 63.8348 30.8ZM71.2112 32.3V22.1H73.1912V24.5H73.2912V32.3H71.2112ZM78.4512 32.3V25.74C78.4512 25.0333 78.2712 24.5067 77.9112 24.16C77.5646 23.8133 77.0446 23.64 76.3512 23.64C75.7512 23.64 75.2179 23.7733 74.7512 24.04C74.2979 24.3067 73.9379 24.6733 73.6712 25.14C73.4179 25.6067 73.2912 26.16 73.2912 26.8L73.0312 24.36C73.3646 23.6 73.8779 23 74.5712 22.56C75.2646 22.12 76.0712 21.9 76.9912 21.9C78.0846 21.9 78.9446 22.2067 79.5712 22.82C80.1979 23.4333 80.5112 24.2467 80.5112 25.26V32.3H78.4512ZM87.6006 36.6C86.3206 36.6 85.2606 36.3067 84.4206 35.72C83.5939 35.1467 83.0939 34.38 82.9206 33.42H84.8806C85.0139 33.86 85.3073 34.2067 85.7606 34.46C86.2273 34.7133 86.8473 34.84 87.6206 34.84C88.6206 34.84 89.3673 34.5933 89.8606 34.1C90.3539 33.6067 90.6006 32.8733 90.6006 31.9V29.7L90.7806 29.74C90.5806 30.5133 90.1473 31.1267 89.4806 31.58C88.8139 32.02 88.0139 32.24 87.0806 32.24C86.1873 32.24 85.4006 32.0267 84.7206 31.6C84.0406 31.1733 83.5139 30.58 83.1406 29.82C82.7673 29.0467 82.5806 28.1467 82.5806 27.12C82.5806 26.08 82.7739 25.1667 83.1606 24.38C83.5473 23.5933 84.0873 22.9867 84.7806 22.56C85.4873 22.1333 86.3073 21.92 87.2406 21.92C88.2006 21.92 88.9939 22.1533 89.6206 22.62C90.2606 23.0733 90.6673 23.72 90.8406 24.56L90.6806 24.58V22.1H92.6606V31.88C92.6606 33.3467 92.2073 34.5 91.3006 35.34C90.4073 36.18 89.1739 36.6 87.6006 36.6ZM87.7006 30.56C88.5939 30.56 89.3073 30.2467 89.8406 29.62C90.3873 28.9933 90.6606 28.1333 90.6606 27.04C90.6606 25.9733 90.3873 25.1333 89.8406 24.52C89.3073 23.9067 88.5873 23.6 87.6806 23.6C86.7739 23.6 86.0539 23.9133 85.5206 24.54C84.9873 25.1533 84.7206 26.0067 84.7206 27.1C84.7206 28.1667 84.9873 29.0133 85.5206 29.64C86.0673 30.2533 86.7939 30.56 87.7006 30.56ZM98.7715 32.3V30.56C100.172 29.4133 101.338 28.4133 102.272 27.56C103.218 26.7067 103.972 25.9467 104.532 25.28C105.092 24.6133 105.492 24.0067 105.732 23.46C105.972 22.9133 106.092 22.3667 106.092 21.82C106.092 21.0733 105.872 20.4933 105.432 20.08C105.005 19.6533 104.412 19.44 103.652 19.44C102.865 19.44 102.225 19.6733 101.732 20.14C101.238 20.5933 100.932 21.24 100.812 22.08H98.6515C98.7849 20.76 99.2982 19.7 100.192 18.9C101.098 18.1 102.292 17.7 103.772 17.7C105.185 17.7 106.298 18.0733 107.112 18.82C107.938 19.5667 108.352 20.5933 108.352 21.9C108.352 22.5667 108.225 23.2333 107.972 23.9C107.732 24.5533 107.332 25.24 106.772 25.96C106.212 26.6667 105.458 27.4533 104.512 28.32C103.578 29.1733 102.418 30.1467 101.032 31.24L100.532 30.56H108.612V32.3H98.7715Z" fill="white"/>
<defs>
<filter id="filter0_d_4_234" x="4.86374e-05" y="-1.23978e-05" width="155.6" height="50.6" filterUnits="userSpaceOnUse" color-interpolation-filters="sRGB">
<feFlood flood-opacity="0" result="BackgroundImageFix"/>
<feColorMatrix in="SourceAlpha" type="matrix" values="0 0 0 0 0 0 0 0 0 0 0 0 0 0 0 0 0 0 127 0" result="hardAlpha"/>
<feOffset/>
<feGaussianBlur stdDeviation="2.65"/>
<feComposite in2="hardAlpha" operator="out"/>
<feColorMatrix type="matrix" values="0 0 0 0 0 0 0 0 0 0 0 0 0 0 0 0 0 0 1 0"/>
<feBlend mode="normal" in2="BackgroundImageFix" result="effect1_dropShadow_4_234"/>
<feBlend mode="normal" in="SourceGraphic" in2="effect1_dropShadow_4_234" result="shape"/>
</filter>
</defs>
</svg>
