<svg width="1150" height="700" viewBox="0 0 1150 700" fill="none" xmlns="http://www.w3.org/2000/svg">
<rect x="2.5" y="2.5" width="1145" height="695" rx="55.5" fill="white" stroke="#0F130F" stroke-width="5"/>
<path d="M516.344 120V68.16H523.976V120H516.344ZM534.553 120V83.28H541.681V91.92H542.041V120H534.553ZM560.617 120V96.384C560.617 93.84 559.969 91.944 558.673 90.696C557.425 89.448 555.553 88.824 553.057 88.824C550.897 88.824 548.977 89.304 547.297 90.264C545.665 91.224 544.369 92.544 543.409 94.224C542.497 95.904 542.041 97.896 542.041 100.2L541.105 91.416C542.305 88.68 544.153 86.52 546.649 84.936C549.145 83.352 552.049 82.56 555.361 82.56C559.297 82.56 562.393 83.664 564.649 85.872C566.905 88.08 568.033 91.008 568.033 94.656V120H560.617ZM580.044 120V79.032C580.044 75.288 581.1 72.432 583.212 70.464C585.324 68.448 588.492 67.44 592.716 67.44C593.676 67.44 594.468 67.488 595.092 67.584C595.716 67.68 596.268 67.824 596.748 68.016V73.776C596.412 73.68 595.956 73.584 595.38 73.488C594.852 73.392 594.252 73.344 593.58 73.344C591.468 73.344 589.932 73.872 588.972 74.928C588.012 75.936 587.532 77.376 587.532 79.248V120H580.044ZM572.988 89.256V83.28H595.956V89.256H572.988ZM617.685 120.72C613.941 120.72 610.653 119.904 607.821 118.272C604.989 116.592 602.781 114.312 601.197 111.432C599.613 108.504 598.821 105.192 598.821 101.496C598.821 97.752 599.613 94.464 601.197 91.632C602.829 88.8 605.037 86.592 607.821 85.008C610.653 83.376 613.941 82.56 617.685 82.56C621.477 82.56 624.789 83.376 627.621 85.008C630.453 86.592 632.637 88.8 634.173 91.632C635.757 94.464 636.549 97.752 636.549 101.496C636.549 105.192 635.757 108.504 634.173 111.432C632.637 114.312 630.453 116.592 627.621 118.272C624.789 119.904 621.477 120.72 617.685 120.72ZM617.685 114.6C619.941 114.6 621.885 114.048 623.517 112.944C625.197 111.84 626.517 110.304 627.477 108.336C628.437 106.368 628.917 104.064 628.917 101.424C628.917 97.488 627.861 94.392 625.749 92.136C623.685 89.832 620.997 88.68 617.685 88.68C614.421 88.68 611.733 89.832 609.621 92.136C607.557 94.44 606.525 97.536 606.525 101.424C606.525 104.064 606.981 106.368 607.893 108.336C608.853 110.304 610.173 111.84 611.853 112.944C613.581 114.048 615.525 114.6 617.685 114.6Z" fill="black"/>
<path d="M131.418 273V247.08H134.37V273H131.418ZM148.77 273V247.08H151.722V273H148.77ZM132.93 258.204H150.066V260.796H132.93V258.204ZM165.234 273.36C163.482 273.36 161.934 272.952 160.59 272.136C159.246 271.296 158.19 270.156 157.422 268.716C156.654 267.276 156.27 265.62 156.27 263.748C156.27 261.876 156.642 260.232 157.386 258.816C158.154 257.376 159.222 256.26 160.59 255.468C161.958 254.676 163.53 254.28 165.306 254.28C167.01 254.28 168.486 254.652 169.734 255.396C171.006 256.14 171.978 257.184 172.65 258.528C173.346 259.872 173.694 261.456 173.694 263.28C173.694 263.52 173.682 263.748 173.658 263.964C173.658 264.18 173.634 264.42 173.586 264.684H158.43V262.272H171.822L170.886 263.604C170.886 261.396 170.394 259.704 169.41 258.528C168.45 257.328 167.082 256.728 165.306 256.728C163.482 256.728 162.006 257.364 160.878 258.636C159.774 259.884 159.222 261.576 159.222 263.712C159.222 265.896 159.774 267.648 160.878 268.968C162.006 270.264 163.506 270.912 165.378 270.912C166.554 270.912 167.586 270.66 168.474 270.156C169.362 269.628 170.01 268.884 170.418 267.924H173.154C172.554 269.604 171.546 270.936 170.13 271.92C168.738 272.88 167.106 273.36 165.234 273.36ZM179.122 280.38L183.226 270.84L183.874 269.832L189.886 254.64H192.838L182.182 280.38H179.122ZM183.55 273.18L175.306 254.64H178.474L185.566 271.236L183.55 273.18ZM196.382 273V247.08H199.262V273H196.382ZM212.662 273.36C210.862 273.36 209.278 272.94 207.91 272.1C206.542 271.26 205.474 270.12 204.706 268.68C203.962 267.216 203.59 265.572 203.59 263.748C203.59 261.9 203.974 260.268 204.742 258.852C205.51 257.436 206.566 256.32 207.91 255.504C209.278 254.688 210.862 254.28 212.662 254.28C214.486 254.28 216.07 254.688 217.414 255.504C218.782 256.32 219.838 257.436 220.582 258.852C221.35 260.268 221.734 261.9 221.734 263.748C221.734 265.572 221.35 267.216 220.582 268.68C219.838 270.12 218.782 271.26 217.414 272.1C216.07 272.94 214.486 273.36 212.662 273.36ZM212.662 270.912C213.91 270.912 214.99 270.612 215.902 270.012C216.814 269.388 217.522 268.536 218.026 267.456C218.53 266.376 218.782 265.128 218.782 263.712C218.782 261.6 218.218 259.908 217.09 258.636C215.986 257.364 214.51 256.728 212.662 256.728C210.838 256.728 209.362 257.364 208.234 258.636C207.106 259.908 206.542 261.6 206.542 263.712C206.542 265.128 206.794 266.376 207.298 267.456C207.802 268.536 208.51 269.388 209.422 270.012C210.358 270.612 211.438 270.912 212.662 270.912ZM226.251 265.44L225.819 246.36H228.915L228.483 265.44H226.251ZM225.531 273V269.292H229.239V273H225.531ZM249.709 273V249.672H240.817V247.08H261.553V249.672H252.661V273H249.709ZM265.745 273V247.08H268.625V273H265.745ZM278.885 273V260.976C278.885 259.584 278.537 258.54 277.841 257.844C277.145 257.148 276.113 256.8 274.745 256.8C273.545 256.8 272.477 257.064 271.541 257.592C270.629 258.12 269.909 258.852 269.381 259.788C268.877 260.724 268.625 261.816 268.625 263.064L268.157 258.708C268.781 257.34 269.729 256.26 271.001 255.468C272.297 254.676 273.761 254.28 275.393 254.28C277.313 254.28 278.849 254.832 280.001 255.936C281.177 257.016 281.765 258.444 281.765 260.22V273H278.885ZM287.296 273V254.64H290.176V273H287.296ZM287.08 250.464V247.08H290.392V250.464H287.08ZM302.172 273.36C299.916 273.36 298.116 272.844 296.772 271.812C295.428 270.756 294.66 269.268 294.468 267.348H297.24C297.408 268.524 297.924 269.424 298.788 270.048C299.652 270.672 300.804 270.984 302.244 270.984C303.516 270.984 304.512 270.744 305.232 270.264C305.952 269.784 306.312 269.1 306.312 268.212C306.312 267.588 306.108 267.048 305.7 266.592C305.292 266.112 304.476 265.716 303.252 265.404L300.3 264.648C298.62 264.216 297.36 263.556 296.52 262.668C295.68 261.756 295.26 260.676 295.26 259.428C295.26 257.844 295.848 256.596 297.024 255.684C298.2 254.748 299.796 254.28 301.812 254.28C303.804 254.28 305.424 254.76 306.672 255.72C307.92 256.68 308.628 258.012 308.796 259.716H306.024C305.856 258.732 305.4 257.976 304.656 257.448C303.912 256.92 302.928 256.656 301.704 256.656C300.528 256.656 299.616 256.884 298.968 257.34C298.32 257.772 297.996 258.396 297.996 259.212C297.996 259.836 298.224 260.376 298.68 260.832C299.16 261.288 299.952 261.672 301.056 261.984L303.936 262.776C305.64 263.232 306.924 263.928 307.788 264.864C308.652 265.8 309.084 266.928 309.084 268.248C309.084 269.856 308.472 271.116 307.248 272.028C306.024 272.916 304.332 273.36 302.172 273.36ZM327.475 280.74C325.291 280.74 323.467 280.224 322.003 279.192C320.563 278.184 319.687 276.84 319.375 275.16H322.111C322.375 276.12 322.963 276.876 323.875 277.428C324.811 278.004 326.071 278.292 327.655 278.292C329.527 278.292 330.943 277.776 331.903 276.744C332.863 275.736 333.343 274.248 333.343 272.28V268.356L333.703 268.428C333.295 269.82 332.479 270.936 331.255 271.776C330.031 272.592 328.579 273 326.899 273C325.291 273 323.875 272.616 322.651 271.848C321.427 271.056 320.479 269.964 319.807 268.572C319.135 267.18 318.799 265.56 318.799 263.712C318.799 261.84 319.147 260.196 319.843 258.78C320.539 257.364 321.511 256.272 322.759 255.504C324.031 254.712 325.507 254.316 327.187 254.316C328.915 254.316 330.355 254.736 331.507 255.576C332.683 256.416 333.463 257.616 333.847 259.176L333.523 259.212V254.64H336.223V272.28C336.223 274.896 335.443 276.96 333.883 278.472C332.323 279.984 330.187 280.74 327.475 280.74ZM327.619 270.516C329.419 270.516 330.847 269.892 331.903 268.644C332.959 267.396 333.487 265.704 333.487 263.568C333.487 261.48 332.959 259.836 331.903 258.636C330.847 257.412 329.419 256.8 327.619 256.8C325.795 256.8 324.355 257.412 323.299 258.636C322.267 259.86 321.751 261.54 321.751 263.676C321.751 265.764 322.279 267.432 323.335 268.68C324.391 269.904 325.819 270.516 327.619 270.516ZM353.267 273C353.171 272.592 353.099 272.124 353.051 271.596C353.027 271.068 353.015 270.396 353.015 269.58H352.835V260.796C352.835 259.404 352.511 258.384 351.863 257.736C351.239 257.064 350.219 256.728 348.803 256.728C347.411 256.728 346.295 257.016 345.455 257.592C344.639 258.144 344.183 258.936 344.087 259.968H341.315C341.435 258.192 342.179 256.8 343.547 255.792C344.915 254.784 346.703 254.28 348.911 254.28C351.191 254.28 352.883 254.82 353.987 255.9C355.091 256.98 355.643 258.6 355.643 260.76V269.58C355.643 270.108 355.679 270.66 355.751 271.236C355.823 271.788 355.919 272.376 356.039 273H353.267ZM346.967 273.36C345.071 273.36 343.559 272.904 342.431 271.992C341.327 271.056 340.775 269.784 340.775 268.176C340.775 266.568 341.327 265.32 342.431 264.432C343.535 263.544 345.143 262.92 347.255 262.56L353.663 261.48V263.856L347.687 264.792C346.343 265.008 345.323 265.368 344.627 265.872C343.931 266.376 343.583 267.108 343.583 268.068C343.583 269.004 343.895 269.712 344.519 270.192C345.167 270.672 346.115 270.912 347.363 270.912C348.971 270.912 350.279 270.552 351.287 269.832C352.319 269.088 352.835 268.128 352.835 266.952L353.303 269.508C352.919 270.732 352.163 271.68 351.035 272.352C349.931 273.024 348.575 273.36 346.967 273.36ZM361.194 273V254.64H363.894V258.96H364.074V273H361.194ZM373.578 273V260.832C373.578 259.44 373.266 258.42 372.642 257.772C372.018 257.124 371.118 256.8 369.942 256.8C368.838 256.8 367.842 257.064 366.954 257.592C366.066 258.12 365.358 258.852 364.83 259.788C364.326 260.724 364.074 261.816 364.074 263.064L363.606 258.708C364.23 257.34 365.166 256.26 366.414 255.468C367.662 254.676 369.018 254.28 370.482 254.28C372.258 254.28 373.698 254.808 374.802 255.864C375.906 256.896 376.458 258.3 376.458 260.076V273H373.578ZM385.962 273V260.832C385.962 259.44 385.65 258.42 385.026 257.772C384.402 257.124 383.502 256.8 382.326 256.8C381.222 256.8 380.226 257.064 379.338 257.592C378.45 258.12 377.742 258.852 377.214 259.788C376.71 260.724 376.458 261.816 376.458 263.064L375.738 258.708C376.362 257.34 377.322 256.26 378.618 255.468C379.914 254.676 381.306 254.28 382.794 254.28C384.57 254.28 386.022 254.808 387.15 255.864C388.278 256.896 388.842 258.3 388.842 260.076V273H385.962ZM401.906 273.36C400.154 273.36 398.606 272.952 397.262 272.136C395.918 271.296 394.862 270.156 394.094 268.716C393.326 267.276 392.942 265.62 392.942 263.748C392.942 261.876 393.314 260.232 394.058 258.816C394.826 257.376 395.894 256.26 397.262 255.468C398.63 254.676 400.202 254.28 401.978 254.28C403.682 254.28 405.158 254.652 406.406 255.396C407.678 256.14 408.65 257.184 409.322 258.528C410.018 259.872 410.366 261.456 410.366 263.28C410.366 263.52 410.354 263.748 410.33 263.964C410.33 264.18 410.306 264.42 410.258 264.684H395.102V262.272H408.494L407.558 263.604C407.558 261.396 407.066 259.704 406.082 258.528C405.122 257.328 403.754 256.728 401.978 256.728C400.154 256.728 398.678 257.364 397.55 258.636C396.446 259.884 395.894 261.576 395.894 263.712C395.894 265.896 396.446 267.648 397.55 268.968C398.678 270.264 400.178 270.912 402.05 270.912C403.226 270.912 404.258 270.66 405.146 270.156C406.034 269.628 406.682 268.884 407.09 267.924H409.826C409.226 269.604 408.218 270.936 406.802 271.92C405.41 272.88 403.778 273.36 401.906 273.36ZM425.653 273L420.037 254.64H422.953L427.273 270.372H426.553L431.737 254.64H434.077L439.297 270.372H438.577L442.861 254.64H445.633L440.017 273H437.677L432.493 257.628H433.249L427.993 273H425.653ZM460.318 273C460.222 272.592 460.15 272.124 460.102 271.596C460.078 271.068 460.066 270.396 460.066 269.58H459.886V260.796C459.886 259.404 459.562 258.384 458.914 257.736C458.29 257.064 457.27 256.728 455.854 256.728C454.462 256.728 453.346 257.016 452.506 257.592C451.69 258.144 451.234 258.936 451.138 259.968H448.366C448.486 258.192 449.23 256.8 450.598 255.792C451.966 254.784 453.754 254.28 455.962 254.28C458.242 254.28 459.934 254.82 461.038 255.9C462.142 256.98 462.694 258.6 462.694 260.76V269.58C462.694 270.108 462.73 270.66 462.802 271.236C462.874 271.788 462.97 272.376 463.09 273H460.318ZM454.018 273.36C452.122 273.36 450.61 272.904 449.482 271.992C448.378 271.056 447.826 269.784 447.826 268.176C447.826 266.568 448.378 265.32 449.482 264.432C450.586 263.544 452.194 262.92 454.306 262.56L460.714 261.48V263.856L454.738 264.792C453.394 265.008 452.374 265.368 451.678 265.872C450.982 266.376 450.634 267.108 450.634 268.068C450.634 269.004 450.946 269.712 451.57 270.192C452.218 270.672 453.166 270.912 454.414 270.912C456.022 270.912 457.33 270.552 458.338 269.832C459.37 269.088 459.886 268.128 459.886 266.952L460.354 269.508C459.97 270.732 459.214 271.68 458.086 272.352C456.982 273.024 455.626 273.36 454.018 273.36ZM474.403 273.36C472.147 273.36 470.347 272.844 469.003 271.812C467.659 270.756 466.891 269.268 466.699 267.348H469.471C469.639 268.524 470.155 269.424 471.019 270.048C471.883 270.672 473.035 270.984 474.475 270.984C475.747 270.984 476.743 270.744 477.463 270.264C478.183 269.784 478.543 269.1 478.543 268.212C478.543 267.588 478.339 267.048 477.931 266.592C477.523 266.112 476.707 265.716 475.483 265.404L472.531 264.648C470.851 264.216 469.591 263.556 468.751 262.668C467.911 261.756 467.491 260.676 467.491 259.428C467.491 257.844 468.079 256.596 469.255 255.684C470.431 254.748 472.027 254.28 474.043 254.28C476.035 254.28 477.655 254.76 478.903 255.72C480.151 256.68 480.859 258.012 481.027 259.716H478.255C478.087 258.732 477.631 257.976 476.887 257.448C476.143 256.92 475.159 256.656 473.935 256.656C472.759 256.656 471.847 256.884 471.199 257.34C470.551 257.772 470.227 258.396 470.227 259.212C470.227 259.836 470.455 260.376 470.911 260.832C471.391 261.288 472.183 261.672 473.287 261.984L476.167 262.776C477.871 263.232 479.155 263.928 480.019 264.864C480.883 265.8 481.315 266.928 481.315 268.248C481.315 269.856 480.703 271.116 479.479 272.028C478.255 272.916 476.563 273.36 474.403 273.36ZM492.398 273V254.64H495.098V258.96H495.278V273H492.398ZM504.782 273V260.832C504.782 259.44 504.47 258.42 503.846 257.772C503.222 257.124 502.322 256.8 501.146 256.8C500.042 256.8 499.046 257.064 498.158 257.592C497.27 258.12 496.562 258.852 496.034 259.788C495.53 260.724 495.278 261.816 495.278 263.064L494.81 258.708C495.434 257.34 496.37 256.26 497.618 255.468C498.866 254.676 500.222 254.28 501.686 254.28C503.462 254.28 504.902 254.808 506.006 255.864C507.11 256.896 507.662 258.3 507.662 260.076V273H504.782ZM517.166 273V260.832C517.166 259.44 516.854 258.42 516.23 257.772C515.606 257.124 514.706 256.8 513.53 256.8C512.426 256.8 511.43 257.064 510.542 257.592C509.654 258.12 508.946 258.852 508.418 259.788C507.914 260.724 507.662 261.816 507.662 263.064L506.942 258.708C507.566 257.34 508.526 256.26 509.822 255.468C511.118 254.676 512.51 254.28 513.998 254.28C515.774 254.28 517.226 254.808 518.354 255.864C519.482 256.896 520.046 258.3 520.046 260.076V273H517.166ZM536.748 273C536.652 272.592 536.58 272.124 536.532 271.596C536.508 271.068 536.496 270.396 536.496 269.58H536.316V260.796C536.316 259.404 535.992 258.384 535.344 257.736C534.72 257.064 533.7 256.728 532.284 256.728C530.892 256.728 529.776 257.016 528.936 257.592C528.12 258.144 527.664 258.936 527.568 259.968H524.796C524.916 258.192 525.66 256.8 527.028 255.792C528.396 254.784 530.184 254.28 532.392 254.28C534.672 254.28 536.364 254.82 537.468 255.9C538.572 256.98 539.124 258.6 539.124 260.76V269.58C539.124 270.108 539.16 270.66 539.232 271.236C539.304 271.788 539.4 272.376 539.52 273H536.748ZM530.448 273.36C528.552 273.36 527.04 272.904 525.912 271.992C524.808 271.056 524.256 269.784 524.256 268.176C524.256 266.568 524.808 265.32 525.912 264.432C527.016 263.544 528.624 262.92 530.736 262.56L537.144 261.48V263.856L531.168 264.792C529.824 265.008 528.804 265.368 528.108 265.872C527.412 266.376 527.064 267.108 527.064 268.068C527.064 269.004 527.376 269.712 528 270.192C528.648 270.672 529.596 270.912 530.844 270.912C532.452 270.912 533.76 270.552 534.768 269.832C535.8 269.088 536.316 268.128 536.316 266.952L536.784 269.508C536.4 270.732 535.644 271.68 534.516 272.352C533.412 273.024 532.056 273.36 530.448 273.36ZM558.031 273V268.716L558.391 268.824C557.935 270.216 557.095 271.32 555.871 272.136C554.671 272.952 553.231 273.36 551.551 273.36C549.895 273.36 548.443 272.964 547.195 272.172C545.971 271.38 545.011 270.276 544.315 268.86C543.643 267.444 543.307 265.788 543.307 263.892C543.307 261.972 543.655 260.292 544.351 258.852C545.047 257.412 546.019 256.296 547.267 255.504C548.515 254.712 549.979 254.316 551.659 254.316C553.387 254.316 554.839 254.736 556.015 255.576C557.191 256.416 557.995 257.604 558.427 259.14L557.851 259.212V247.08H560.731V273H558.031ZM552.091 270.84C553.939 270.84 555.379 270.216 556.411 268.968C557.467 267.696 557.995 265.968 557.995 263.784C557.995 261.648 557.467 259.956 556.411 258.708C555.355 257.46 553.915 256.836 552.091 256.836C550.267 256.836 548.839 257.46 547.807 258.708C546.775 259.956 546.259 261.684 546.259 263.892C546.259 266.052 546.775 267.756 547.807 269.004C548.839 270.228 550.267 270.84 552.091 270.84ZM574.031 273.36C572.279 273.36 570.731 272.952 569.387 272.136C568.043 271.296 566.987 270.156 566.219 268.716C565.451 267.276 565.067 265.62 565.067 263.748C565.067 261.876 565.439 260.232 566.183 258.816C566.951 257.376 568.019 256.26 569.387 255.468C570.755 254.676 572.327 254.28 574.103 254.28C575.807 254.28 577.283 254.652 578.531 255.396C579.803 256.14 580.775 257.184 581.447 258.528C582.143 259.872 582.491 261.456 582.491 263.28C582.491 263.52 582.479 263.748 582.455 263.964C582.455 264.18 582.431 264.42 582.383 264.684H567.227V262.272H580.619L579.683 263.604C579.683 261.396 579.191 259.704 578.207 258.528C577.247 257.328 575.879 256.728 574.103 256.728C572.279 256.728 570.803 257.364 569.675 258.636C568.571 259.884 568.019 261.576 568.019 263.712C568.019 265.896 568.571 267.648 569.675 268.968C570.803 270.264 572.303 270.912 574.175 270.912C575.351 270.912 576.383 270.66 577.271 270.156C578.159 269.628 578.807 268.884 579.215 267.924H581.951C581.351 269.604 580.343 270.936 578.927 271.92C577.535 272.88 575.903 273.36 574.031 273.36ZM595.546 273V252.048C595.546 250.368 596.026 249.06 596.986 248.124C597.97 247.188 599.458 246.72 601.45 246.72C601.93 246.72 602.302 246.744 602.566 246.792C602.854 246.84 603.094 246.9 603.286 246.972V249.24C603.118 249.192 602.878 249.144 602.566 249.096C602.278 249.048 601.966 249.024 601.63 249.024C600.526 249.024 599.71 249.3 599.182 249.852C598.678 250.404 598.426 251.184 598.426 252.192V273H595.546ZM591.766 257.088V254.64H602.89V257.088H591.766ZM613.69 273.36C611.89 273.36 610.306 272.94 608.938 272.1C607.57 271.26 606.502 270.12 605.734 268.68C604.99 267.216 604.618 265.572 604.618 263.748C604.618 261.9 605.002 260.268 605.77 258.852C606.538 257.436 607.594 256.32 608.938 255.504C610.306 254.688 611.89 254.28 613.69 254.28C615.514 254.28 617.098 254.688 618.442 255.504C619.81 256.32 620.866 257.436 621.61 258.852C622.378 260.268 622.762 261.9 622.762 263.748C622.762 265.572 622.378 267.216 621.61 268.68C620.866 270.12 619.81 271.26 618.442 272.1C617.098 272.94 615.514 273.36 613.69 273.36ZM613.69 270.912C614.938 270.912 616.018 270.612 616.93 270.012C617.842 269.388 618.55 268.536 619.054 267.456C619.558 266.376 619.81 265.128 619.81 263.712C619.81 261.6 619.246 259.908 618.118 258.636C617.014 257.364 615.538 256.728 613.69 256.728C611.866 256.728 610.39 257.364 609.262 258.636C608.134 259.908 607.57 261.6 607.57 263.712C607.57 265.128 607.822 266.376 608.326 267.456C608.83 268.536 609.538 269.388 610.45 270.012C611.386 270.612 612.466 270.912 613.69 270.912ZM627.081 273V254.64H629.781V259.32H629.961V273H627.081ZM629.961 263.424L629.493 259.068C629.925 257.508 630.693 256.32 631.797 255.504C632.901 254.688 634.173 254.28 635.613 254.28C636.213 254.28 636.621 254.328 636.837 254.424V257.196C636.717 257.148 636.549 257.124 636.333 257.124C636.117 257.1 635.853 257.088 635.541 257.088C633.717 257.088 632.325 257.64 631.365 258.744C630.429 259.824 629.961 261.384 629.961 263.424ZM648.004 273V247.08H657.58C659.428 247.08 661 247.38 662.296 247.98C663.592 248.58 664.576 249.42 665.248 250.5C665.944 251.556 666.292 252.816 666.292 254.28C666.292 255.744 665.944 257.028 665.248 258.132C664.576 259.212 663.592 260.064 662.296 260.688C661 261.288 659.428 261.588 657.58 261.588H650.164V258.996H657.472C659.392 258.996 660.844 258.576 661.828 257.736C662.836 256.896 663.34 255.744 663.34 254.28C663.34 252.84 662.848 251.712 661.864 250.896C660.88 250.08 659.416 249.672 657.472 249.672H650.956V273H648.004ZM663.196 273L649.408 260.148H653.44L667.66 273H663.196ZM677.847 273.36C676.095 273.36 674.547 272.952 673.203 272.136C671.859 271.296 670.803 270.156 670.035 268.716C669.267 267.276 668.883 265.62 668.883 263.748C668.883 261.876 669.255 260.232 669.999 258.816C670.767 257.376 671.835 256.26 673.203 255.468C674.571 254.676 676.143 254.28 677.919 254.28C679.623 254.28 681.099 254.652 682.347 255.396C683.619 256.14 684.591 257.184 685.263 258.528C685.959 259.872 686.307 261.456 686.307 263.28C686.307 263.52 686.295 263.748 686.271 263.964C686.271 264.18 686.247 264.42 686.199 264.684H671.043V262.272H684.435L683.499 263.604C683.499 261.396 683.007 259.704 682.023 258.528C681.063 257.328 679.695 256.728 677.919 256.728C676.095 256.728 674.619 257.364 673.491 258.636C672.387 259.884 671.835 261.576 671.835 263.712C671.835 265.896 672.387 267.648 673.491 268.968C674.619 270.264 676.119 270.912 677.991 270.912C679.167 270.912 680.199 270.66 681.087 270.156C681.975 269.628 682.623 268.884 683.031 267.924H685.767C685.167 269.604 684.159 270.936 682.743 271.92C681.351 272.88 679.719 273.36 677.847 273.36ZM690.644 273V254.64H693.344V258.96H693.524V273H690.644ZM703.028 273V260.832C703.028 259.44 702.716 258.42 702.092 257.772C701.468 257.124 700.568 256.8 699.392 256.8C698.288 256.8 697.292 257.064 696.404 257.592C695.516 258.12 694.808 258.852 694.28 259.788C693.776 260.724 693.524 261.816 693.524 263.064L693.056 258.708C693.68 257.34 694.616 256.26 695.864 255.468C697.112 254.676 698.468 254.28 699.932 254.28C701.708 254.28 703.148 254.808 704.252 255.864C705.356 256.896 705.908 258.3 705.908 260.076V273H703.028ZM715.412 273V260.832C715.412 259.44 715.1 258.42 714.476 257.772C713.852 257.124 712.952 256.8 711.776 256.8C710.672 256.8 709.676 257.064 708.788 257.592C707.9 258.12 707.192 258.852 706.664 259.788C706.16 260.724 705.908 261.816 705.908 263.064L705.188 258.708C705.812 257.34 706.772 256.26 708.068 255.468C709.364 254.676 710.756 254.28 712.244 254.28C714.02 254.28 715.472 254.808 716.6 255.864C717.728 256.896 718.292 258.3 718.292 260.076V273H715.412ZM723.831 273V254.64H726.711V273H723.831ZM723.615 250.464V247.08H726.927V250.464H723.615ZM744.373 273L738.289 264.468L731.017 254.64H734.365L739.981 262.524L747.721 273H744.373ZM738.469 262.668L744.229 254.64H747.469L739.981 264.612L738.469 262.668ZM739.693 264.648L733.465 273H730.189L738.289 262.596L739.693 264.648ZM758.109 273.36C756.357 273.36 754.809 272.952 753.465 272.136C752.121 271.296 751.065 270.156 750.297 268.716C749.529 267.276 749.145 265.62 749.145 263.748C749.145 261.876 749.517 260.232 750.261 258.816C751.029 257.376 752.097 256.26 753.465 255.468C754.833 254.676 756.405 254.28 758.181 254.28C759.885 254.28 761.361 254.652 762.609 255.396C763.881 256.14 764.853 257.184 765.525 258.528C766.221 259.872 766.569 261.456 766.569 263.28C766.569 263.52 766.557 263.748 766.533 263.964C766.533 264.18 766.509 264.42 766.461 264.684H751.305V262.272H764.697L763.761 263.604C763.761 261.396 763.269 259.704 762.285 258.528C761.325 257.328 759.957 256.728 758.181 256.728C756.357 256.728 754.881 257.364 753.753 258.636C752.649 259.884 752.097 261.576 752.097 263.712C752.097 265.896 752.649 267.648 753.753 268.968C754.881 270.264 756.381 270.912 758.253 270.912C759.429 270.912 760.461 270.66 761.349 270.156C762.237 269.628 762.885 268.884 763.293 267.924H766.029C765.429 269.604 764.421 270.936 763.005 271.92C761.613 272.88 759.981 273.36 758.109 273.36ZM784.261 273V268.716L784.621 268.824C784.165 270.216 783.325 271.32 782.101 272.136C780.901 272.952 779.461 273.36 777.781 273.36C776.125 273.36 774.673 272.964 773.425 272.172C772.201 271.38 771.241 270.276 770.545 268.86C769.873 267.444 769.537 265.788 769.537 263.892C769.537 261.972 769.885 260.292 770.581 258.852C771.277 257.412 772.249 256.296 773.497 255.504C774.745 254.712 776.209 254.316 777.889 254.316C779.617 254.316 781.069 254.736 782.245 255.576C783.421 256.416 784.225 257.604 784.657 259.14L784.081 259.212V247.08H786.961V273H784.261ZM778.321 270.84C780.169 270.84 781.609 270.216 782.641 268.968C783.697 267.696 784.225 265.968 784.225 263.784C784.225 261.648 783.697 259.956 782.641 258.708C781.585 257.46 780.145 256.836 778.321 256.836C776.497 256.836 775.069 257.46 774.037 258.708C773.005 259.956 772.489 261.684 772.489 263.892C772.489 266.052 773.005 267.756 774.037 269.004C775.069 270.228 776.497 270.84 778.321 270.84ZM809.016 273.324C807.288 273.324 805.836 272.904 804.66 272.064C803.484 271.224 802.68 270.036 802.248 268.5L802.644 268.428V273H799.944V247.08H802.824V258.924L802.428 258.816C802.884 257.4 803.712 256.296 804.912 255.504C806.136 254.688 807.588 254.28 809.268 254.28C810.9 254.28 812.316 254.676 813.516 255.468C814.74 256.26 815.688 257.364 816.36 258.78C817.032 260.196 817.368 261.852 817.368 263.748C817.368 265.668 817.02 267.348 816.324 268.788C815.628 270.228 814.656 271.344 813.408 272.136C812.16 272.928 810.696 273.324 809.016 273.324ZM808.584 270.804C810.408 270.804 811.836 270.18 812.868 268.932C813.9 267.66 814.416 265.932 814.416 263.748C814.416 261.588 813.9 259.896 812.868 258.672C811.836 257.424 810.408 256.8 808.584 256.8C806.76 256.8 805.32 257.436 804.264 258.708C803.208 259.956 802.68 261.672 802.68 263.856C802.68 265.992 803.208 267.684 804.264 268.932C805.32 270.18 806.76 270.804 808.584 270.804ZM822.833 280.38L826.937 270.84L827.585 269.832L833.597 254.64H836.549L825.893 280.38H822.833ZM827.261 273.18L819.017 254.64H822.185L829.277 271.236L827.261 273.18ZM847.516 273V247.08H850.468V273H847.516ZM864.868 273V247.08H867.82V273H864.868ZM849.028 258.204H866.164V260.796H849.028V258.204ZM885.076 273C884.98 272.592 884.908 272.124 884.86 271.596C884.836 271.068 884.824 270.396 884.824 269.58H884.644V260.796C884.644 259.404 884.32 258.384 883.672 257.736C883.048 257.064 882.028 256.728 880.612 256.728C879.22 256.728 878.104 257.016 877.264 257.592C876.448 258.144 875.992 258.936 875.896 259.968H873.124C873.244 258.192 873.988 256.8 875.356 255.792C876.724 254.784 878.512 254.28 880.72 254.28C883 254.28 884.692 254.82 885.796 255.9C886.9 256.98 887.452 258.6 887.452 260.76V269.58C887.452 270.108 887.488 270.66 887.56 271.236C887.632 271.788 887.728 272.376 887.848 273H885.076ZM878.776 273.36C876.88 273.36 875.368 272.904 874.24 271.992C873.136 271.056 872.584 269.784 872.584 268.176C872.584 266.568 873.136 265.32 874.24 264.432C875.344 263.544 876.952 262.92 879.064 262.56L885.472 261.48V263.856L879.496 264.792C878.152 265.008 877.132 265.368 876.436 265.872C875.74 266.376 875.392 267.108 875.392 268.068C875.392 269.004 875.704 269.712 876.328 270.192C876.976 270.672 877.924 270.912 879.172 270.912C880.78 270.912 882.088 270.552 883.096 269.832C884.128 269.088 884.644 268.128 884.644 266.952L885.112 269.508C884.728 270.732 883.972 271.68 882.844 272.352C881.74 273.024 880.384 273.36 878.776 273.36ZM900.275 273.36C898.595 273.36 897.095 272.952 895.775 272.136C894.479 271.296 893.447 270.156 892.679 268.716C891.935 267.252 891.563 265.596 891.563 263.748C891.563 261.9 891.935 260.268 892.679 258.852C893.447 257.436 894.479 256.32 895.775 255.504C897.095 254.688 898.583 254.28 900.239 254.28C901.607 254.28 902.831 254.544 903.911 255.072C905.015 255.6 905.915 256.356 906.611 257.34C907.331 258.3 907.787 259.428 907.979 260.724H905.315C905.075 259.548 904.523 258.588 903.659 257.844C902.795 257.1 901.679 256.728 900.311 256.728C899.135 256.728 898.115 257.016 897.251 257.592C896.387 258.168 895.715 258.984 895.235 260.04C894.755 261.096 894.515 262.332 894.515 263.748C894.515 265.164 894.755 266.412 895.235 267.492C895.715 268.572 896.387 269.412 897.251 270.012C898.139 270.612 899.171 270.912 900.347 270.912C901.667 270.912 902.771 270.552 903.659 269.832C904.547 269.088 905.111 268.128 905.351 266.952H908.015C907.799 268.224 907.319 269.352 906.575 270.336C905.855 271.296 904.955 272.04 903.875 272.568C902.795 273.096 901.595 273.36 900.275 273.36ZM912.198 273V246.36H915.078V273H912.198ZM924.186 273L914.43 263.46L923.826 254.64H927.786L917.238 264.288L917.418 262.596L928.146 273H924.186ZM949.867 273.36C948.091 273.36 946.447 273.036 944.935 272.388C943.447 271.716 942.151 270.792 941.047 269.616C939.943 268.416 939.091 267.012 938.491 265.404C937.891 263.772 937.591 261.984 937.591 260.04C937.591 258.096 937.891 256.32 938.491 254.712C939.091 253.08 939.931 251.676 941.011 250.5C942.115 249.3 943.411 248.376 944.899 247.728C946.411 247.056 948.055 246.72 949.831 246.72C951.775 246.72 953.515 247.116 955.051 247.908C956.611 248.7 957.883 249.816 958.867 251.256C959.875 252.696 960.499 254.376 960.739 256.296H957.787C957.499 254.16 956.647 252.48 955.231 251.256C953.839 250.008 952.051 249.384 949.867 249.384C948.019 249.384 946.399 249.84 945.007 250.752C943.615 251.64 942.535 252.888 941.767 254.496C940.999 256.08 940.615 257.928 940.615 260.04C940.615 262.152 940.999 264.012 941.767 265.62C942.535 267.204 943.615 268.452 945.007 269.364C946.399 270.252 948.007 270.696 949.831 270.696C952.063 270.696 953.887 270.072 955.303 268.824C956.743 267.576 957.595 265.896 957.859 263.784H960.811C960.571 265.704 959.947 267.384 958.939 268.824C957.955 270.264 956.683 271.38 955.123 272.172C953.587 272.964 951.835 273.36 949.867 273.36ZM965.355 273V247.08H968.235V273H965.355ZM979.979 273.36C978.779 273.36 977.711 273.12 976.775 272.64C975.839 272.136 975.107 271.44 974.579 270.552C974.051 269.64 973.787 268.596 973.787 267.42V254.64H976.667V266.664C976.667 268.056 977.003 269.1 977.675 269.796C978.371 270.492 979.355 270.84 980.627 270.84C981.779 270.84 982.799 270.576 983.687 270.048C984.575 269.52 985.271 268.788 985.775 267.852C986.303 266.892 986.567 265.8 986.567 264.576L987.035 268.932C986.435 270.3 985.499 271.38 984.227 272.172C982.955 272.964 981.539 273.36 979.979 273.36ZM986.747 273V268.68H986.567V254.64H989.447V273H986.747ZM1004.27 273.324C1002.55 273.324 1001.09 272.904 999.918 272.064C998.742 271.224 997.938 270.036 997.506 268.5L997.902 268.428V273H995.202V247.08H998.082V258.924L997.686 258.816C998.142 257.4 998.97 256.296 1000.17 255.504C1001.39 254.688 1002.85 254.28 1004.53 254.28C1006.16 254.28 1007.57 254.676 1008.77 255.468C1010 256.26 1010.95 257.364 1011.62 258.78C1012.29 260.196 1012.63 261.852 1012.63 263.748C1012.63 265.668 1012.28 267.348 1011.58 268.788C1010.89 270.228 1009.91 271.344 1008.67 272.136C1007.42 272.928 1005.95 273.324 1004.27 273.324ZM1003.84 270.804C1005.67 270.804 1007.09 270.18 1008.13 268.932C1009.16 267.66 1009.67 265.932 1009.67 263.748C1009.67 261.588 1009.16 259.896 1008.13 258.672C1007.09 257.424 1005.67 256.8 1003.84 256.8C1002.02 256.8 1000.58 257.436 999.522 258.708C998.466 259.956 997.938 261.672 997.938 263.856C997.938 265.992 998.466 267.684 999.522 268.932C1000.58 270.18 1002.02 270.804 1003.84 270.804ZM1015.24 273V269.292H1018.95V273H1015.24Z" fill="black"/>
<path d="M240.182 341.36C237.062 341.36 234.626 340.412 232.874 338.516C231.146 336.596 230.282 333.92 230.282 330.488V315.08H233.234V330.632C233.234 333.224 233.834 335.216 235.034 336.608C236.234 338 237.95 338.696 240.182 338.696C242.462 338.696 244.202 338.012 245.402 336.644C246.602 335.252 247.202 333.248 247.202 330.632V315.08H250.154V330.524C250.154 333.932 249.278 336.596 247.526 338.516C245.774 340.412 243.326 341.36 240.182 341.36ZM261.647 341.36C259.391 341.36 257.591 340.844 256.247 339.812C254.903 338.756 254.135 337.268 253.943 335.348H256.715C256.883 336.524 257.399 337.424 258.263 338.048C259.127 338.672 260.279 338.984 261.719 338.984C262.991 338.984 263.987 338.744 264.707 338.264C265.427 337.784 265.787 337.1 265.787 336.212C265.787 335.588 265.583 335.048 265.175 334.592C264.767 334.112 263.951 333.716 262.727 333.404L259.775 332.648C258.095 332.216 256.835 331.556 255.995 330.668C255.155 329.756 254.735 328.676 254.735 327.428C254.735 325.844 255.323 324.596 256.499 323.684C257.675 322.748 259.271 322.28 261.287 322.28C263.279 322.28 264.899 322.76 266.147 323.72C267.395 324.68 268.103 326.012 268.271 327.716H265.499C265.331 326.732 264.875 325.976 264.131 325.448C263.387 324.92 262.403 324.656 261.179 324.656C260.003 324.656 259.091 324.884 258.443 325.34C257.795 325.772 257.471 326.396 257.471 327.212C257.471 327.836 257.699 328.376 258.155 328.832C258.635 329.288 259.427 329.672 260.531 329.984L263.411 330.776C265.115 331.232 266.399 331.928 267.263 332.864C268.127 333.8 268.559 334.928 268.559 336.248C268.559 337.856 267.947 339.116 266.723 340.028C265.499 340.916 263.807 341.36 261.647 341.36ZM280.592 341.36C278.84 341.36 277.292 340.952 275.948 340.136C274.604 339.296 273.548 338.156 272.78 336.716C272.012 335.276 271.628 333.62 271.628 331.748C271.628 329.876 272 328.232 272.744 326.816C273.512 325.376 274.58 324.26 275.948 323.468C277.316 322.676 278.888 322.28 280.664 322.28C282.368 322.28 283.844 322.652 285.092 323.396C286.364 324.14 287.336 325.184 288.008 326.528C288.704 327.872 289.052 329.456 289.052 331.28C289.052 331.52 289.04 331.748 289.016 331.964C289.016 332.18 288.992 332.42 288.944 332.684H273.788V330.272H287.18L286.244 331.604C286.244 329.396 285.752 327.704 284.768 326.528C283.808 325.328 282.44 324.728 280.664 324.728C278.84 324.728 277.364 325.364 276.236 326.636C275.132 327.884 274.58 329.576 274.58 331.712C274.58 333.896 275.132 335.648 276.236 336.968C277.364 338.264 278.864 338.912 280.736 338.912C281.912 338.912 282.944 338.66 283.832 338.156C284.72 337.628 285.368 336.884 285.776 335.924H288.512C287.912 337.604 286.904 338.936 285.488 339.92C284.096 340.88 282.464 341.36 280.592 341.36ZM302.179 348.38L306.283 338.84L306.931 337.832L312.943 322.64H315.895L305.239 348.38H302.179ZM306.607 341.18L298.363 322.64H301.531L308.623 339.236L306.607 341.18ZM326.614 341.36C324.814 341.36 323.23 340.94 321.862 340.1C320.494 339.26 319.426 338.12 318.658 336.68C317.914 335.216 317.542 333.572 317.542 331.748C317.542 329.9 317.926 328.268 318.694 326.852C319.462 325.436 320.518 324.32 321.862 323.504C323.23 322.688 324.814 322.28 326.614 322.28C328.438 322.28 330.022 322.688 331.366 323.504C332.734 324.32 333.79 325.436 334.534 326.852C335.302 328.268 335.686 329.9 335.686 331.748C335.686 333.572 335.302 335.216 334.534 336.68C333.79 338.12 332.734 339.26 331.366 340.1C330.022 340.94 328.438 341.36 326.614 341.36ZM326.614 338.912C327.862 338.912 328.942 338.612 329.854 338.012C330.766 337.388 331.474 336.536 331.978 335.456C332.482 334.376 332.734 333.128 332.734 331.712C332.734 329.6 332.17 327.908 331.042 326.636C329.938 325.364 328.462 324.728 326.614 324.728C324.79 324.728 323.314 325.364 322.186 326.636C321.058 327.908 320.494 329.6 320.494 331.712C320.494 333.128 320.746 334.376 321.25 335.456C321.754 336.536 322.462 337.388 323.374 338.012C324.31 338.612 325.39 338.912 326.614 338.912ZM345.981 341.36C344.781 341.36 343.713 341.12 342.777 340.64C341.841 340.136 341.109 339.44 340.581 338.552C340.053 337.64 339.789 336.596 339.789 335.42V322.64H342.669V334.664C342.669 336.056 343.005 337.1 343.677 337.796C344.373 338.492 345.357 338.84 346.629 338.84C347.781 338.84 348.801 338.576 349.689 338.048C350.577 337.52 351.273 336.788 351.777 335.852C352.305 334.892 352.569 333.8 352.569 332.576L353.037 336.932C352.437 338.3 351.501 339.38 350.229 340.172C348.957 340.964 347.541 341.36 345.981 341.36ZM352.749 341V336.68H352.569V322.64H355.449V341H352.749ZM361.204 341V322.64H363.904V327.32H364.084V341H361.204ZM364.084 331.424L363.616 327.068C364.048 325.508 364.816 324.32 365.92 323.504C367.024 322.688 368.296 322.28 369.736 322.28C370.336 322.28 370.744 322.328 370.96 322.424V325.196C370.84 325.148 370.672 325.124 370.456 325.124C370.24 325.1 369.976 325.088 369.664 325.088C367.84 325.088 366.448 325.64 365.488 326.744C364.552 327.824 364.084 329.384 364.084 331.424ZM387.275 341L379.679 322.64H382.775L389.111 339.056H387.959L394.259 322.64H397.211L389.615 341H387.275ZM407.93 341.36C406.13 341.36 404.546 340.94 403.178 340.1C401.81 339.26 400.742 338.12 399.974 336.68C399.23 335.216 398.858 333.572 398.858 331.748C398.858 329.9 399.242 328.268 400.01 326.852C400.778 325.436 401.834 324.32 403.178 323.504C404.546 322.688 406.13 322.28 407.93 322.28C409.754 322.28 411.338 322.688 412.682 323.504C414.05 324.32 415.106 325.436 415.85 326.852C416.618 328.268 417.002 329.9 417.002 331.748C417.002 333.572 416.618 335.216 415.85 336.68C415.106 338.12 414.05 339.26 412.682 340.1C411.338 340.94 409.754 341.36 407.93 341.36ZM407.93 338.912C409.178 338.912 410.258 338.612 411.17 338.012C412.082 337.388 412.79 336.536 413.294 335.456C413.798 334.376 414.05 333.128 414.05 331.712C414.05 329.6 413.486 327.908 412.358 326.636C411.254 325.364 409.778 324.728 407.93 324.728C406.106 324.728 404.63 325.364 403.502 326.636C402.374 327.908 401.81 329.6 401.81 331.712C401.81 333.128 402.062 334.376 402.566 335.456C403.07 336.536 403.778 337.388 404.69 338.012C405.626 338.612 406.706 338.912 407.93 338.912ZM421.321 341V322.64H424.201V341H421.321ZM421.105 318.464V315.08H424.417V318.464H421.105ZM437.172 341.36C435.492 341.36 433.992 340.952 432.672 340.136C431.376 339.296 430.344 338.156 429.576 336.716C428.832 335.252 428.46 333.596 428.46 331.748C428.46 329.9 428.832 328.268 429.576 326.852C430.344 325.436 431.376 324.32 432.672 323.504C433.992 322.688 435.48 322.28 437.136 322.28C438.504 322.28 439.728 322.544 440.808 323.072C441.912 323.6 442.812 324.356 443.508 325.34C444.228 326.3 444.684 327.428 444.876 328.724H442.212C441.972 327.548 441.42 326.588 440.556 325.844C439.692 325.1 438.576 324.728 437.208 324.728C436.032 324.728 435.012 325.016 434.148 325.592C433.284 326.168 432.612 326.984 432.132 328.04C431.652 329.096 431.412 330.332 431.412 331.748C431.412 333.164 431.652 334.412 432.132 335.492C432.612 336.572 433.284 337.412 434.148 338.012C435.036 338.612 436.068 338.912 437.244 338.912C438.564 338.912 439.668 338.552 440.556 337.832C441.444 337.088 442.008 336.128 442.248 334.952H444.912C444.696 336.224 444.216 337.352 443.472 338.336C442.752 339.296 441.852 340.04 440.772 340.568C439.692 341.096 438.492 341.36 437.172 341.36ZM456.549 341.36C454.797 341.36 453.249 340.952 451.905 340.136C450.561 339.296 449.505 338.156 448.737 336.716C447.969 335.276 447.585 333.62 447.585 331.748C447.585 329.876 447.957 328.232 448.701 326.816C449.469 325.376 450.537 324.26 451.905 323.468C453.273 322.676 454.845 322.28 456.621 322.28C458.325 322.28 459.801 322.652 461.049 323.396C462.321 324.14 463.293 325.184 463.965 326.528C464.661 327.872 465.009 329.456 465.009 331.28C465.009 331.52 464.997 331.748 464.973 331.964C464.973 332.18 464.949 332.42 464.901 332.684H449.745V330.272H463.137L462.201 331.604C462.201 329.396 461.709 327.704 460.725 326.528C459.765 325.328 458.397 324.728 456.621 324.728C454.797 324.728 453.321 325.364 452.193 326.636C451.089 327.884 450.537 329.576 450.537 331.712C450.537 333.896 451.089 335.648 452.193 336.968C453.321 338.264 454.821 338.912 456.693 338.912C457.869 338.912 458.901 338.66 459.789 338.156C460.677 337.628 461.325 336.884 461.733 335.924H464.469C463.869 337.604 462.861 338.936 461.445 339.92C460.053 340.88 458.421 341.36 456.549 341.36ZM466.349 322.604V321.128C467.165 321.032 467.741 320.72 468.077 320.192C468.413 319.664 468.581 318.824 468.581 317.672L469.661 317.816H466.385V314.216H470.237V317.024C470.237 318.56 469.925 319.82 469.301 320.804C468.701 321.788 467.717 322.388 466.349 322.604ZM479.194 341.36C476.938 341.36 475.138 340.844 473.794 339.812C472.45 338.756 471.682 337.268 471.49 335.348H474.262C474.43 336.524 474.946 337.424 475.81 338.048C476.674 338.672 477.826 338.984 479.266 338.984C480.538 338.984 481.534 338.744 482.254 338.264C482.974 337.784 483.334 337.1 483.334 336.212C483.334 335.588 483.13 335.048 482.722 334.592C482.314 334.112 481.498 333.716 480.274 333.404L477.322 332.648C475.642 332.216 474.382 331.556 473.542 330.668C472.702 329.756 472.282 328.676 472.282 327.428C472.282 325.844 472.87 324.596 474.046 323.684C475.222 322.748 476.818 322.28 478.834 322.28C480.826 322.28 482.446 322.76 483.694 323.72C484.942 324.68 485.65 326.012 485.818 327.716H483.046C482.878 326.732 482.422 325.976 481.678 325.448C480.934 324.92 479.95 324.656 478.726 324.656C477.55 324.656 476.638 324.884 475.99 325.34C475.342 325.772 475.018 326.396 475.018 327.212C475.018 327.836 475.246 328.376 475.702 328.832C476.182 329.288 476.974 329.672 478.078 329.984L480.958 330.776C482.662 331.232 483.946 331.928 484.81 332.864C485.674 333.8 486.106 334.928 486.106 336.248C486.106 337.856 485.494 339.116 484.27 340.028C483.046 340.916 481.354 341.36 479.194 341.36ZM506.261 341.324C504.533 341.324 503.081 340.904 501.905 340.064C500.729 339.224 499.925 338.036 499.493 336.5L500.069 336.428V348.38H497.189V322.64H499.889V326.924L499.493 326.816C499.949 325.4 500.813 324.296 502.085 323.504C503.357 322.688 504.833 322.28 506.513 322.28C508.145 322.28 509.561 322.676 510.761 323.468C511.985 324.26 512.933 325.364 513.605 326.78C514.277 328.196 514.613 329.852 514.613 331.748C514.613 333.668 514.265 335.348 513.569 336.788C512.873 338.228 511.901 339.344 510.653 340.136C509.405 340.928 507.941 341.324 506.261 341.324ZM505.829 338.804C507.653 338.804 509.081 338.18 510.113 336.932C511.145 335.66 511.661 333.932 511.661 331.748C511.661 329.588 511.145 327.896 510.113 326.672C509.081 325.424 507.653 324.8 505.829 324.8C504.005 324.8 502.565 325.436 501.509 326.708C500.453 327.956 499.925 329.672 499.925 331.856C499.925 333.992 500.453 335.684 501.509 336.932C502.565 338.18 504.005 338.804 505.829 338.804ZM518.95 341V322.64H521.83V341H518.95ZM518.734 318.464V315.08H522.046V318.464H518.734ZM534.872 341.324C532.832 341.324 531.344 340.868 530.408 339.956C529.496 339.02 529.04 337.676 529.04 335.924V318.356L531.92 317.276V335.888C531.92 336.92 532.184 337.676 532.712 338.156C533.24 338.636 534.104 338.876 535.304 338.876C535.784 338.876 536.192 338.852 536.528 338.804C536.888 338.732 537.176 338.648 537.392 338.552V341C537.152 341.096 536.804 341.168 536.348 341.216C535.916 341.288 535.424 341.324 534.872 341.324ZM525.26 325.088V322.64H537.392V325.088H525.26ZM547.984 341.36C546.304 341.36 544.804 340.952 543.484 340.136C542.188 339.296 541.156 338.156 540.388 336.716C539.644 335.252 539.272 333.596 539.272 331.748C539.272 329.9 539.644 328.268 540.388 326.852C541.156 325.436 542.188 324.32 543.484 323.504C544.804 322.688 546.292 322.28 547.948 322.28C549.316 322.28 550.54 322.544 551.62 323.072C552.724 323.6 553.624 324.356 554.32 325.34C555.04 326.3 555.496 327.428 555.688 328.724H553.024C552.784 327.548 552.232 326.588 551.368 325.844C550.504 325.1 549.388 324.728 548.02 324.728C546.844 324.728 545.824 325.016 544.96 325.592C544.096 326.168 543.424 326.984 542.944 328.04C542.464 329.096 542.224 330.332 542.224 331.748C542.224 333.164 542.464 334.412 542.944 335.492C543.424 336.572 544.096 337.412 544.96 338.012C545.848 338.612 546.88 338.912 548.056 338.912C549.376 338.912 550.48 338.552 551.368 337.832C552.256 337.088 552.82 336.128 553.06 334.952H555.724C555.508 336.224 555.028 337.352 554.284 338.336C553.564 339.296 552.664 340.04 551.584 340.568C550.504 341.096 549.304 341.36 547.984 341.36ZM559.907 341V315.08H562.787V341H559.907ZM573.047 341V328.976C573.047 327.584 572.699 326.54 572.003 325.844C571.307 325.148 570.275 324.8 568.907 324.8C567.707 324.8 566.639 325.064 565.703 325.592C564.791 326.12 564.071 326.852 563.543 327.788C563.039 328.724 562.787 329.816 562.787 331.064L562.319 326.708C562.943 325.34 563.891 324.26 565.163 323.468C566.459 322.676 567.923 322.28 569.555 322.28C571.475 322.28 573.011 322.832 574.163 323.936C575.339 325.016 575.927 326.444 575.927 328.22V341H573.047ZM596.009 341.324C593.969 341.324 592.481 340.868 591.545 339.956C590.633 339.02 590.177 337.676 590.177 335.924V318.356L593.057 317.276V335.888C593.057 336.92 593.321 337.676 593.849 338.156C594.377 338.636 595.241 338.876 596.441 338.876C596.921 338.876 597.329 338.852 597.665 338.804C598.025 338.732 598.313 338.648 598.529 338.552V341C598.289 341.096 597.941 341.168 597.485 341.216C597.053 341.288 596.561 341.324 596.009 341.324ZM586.397 325.088V322.64H598.529V325.088H586.397ZM609.446 341.36C607.646 341.36 606.062 340.94 604.694 340.1C603.326 339.26 602.258 338.12 601.49 336.68C600.746 335.216 600.374 333.572 600.374 331.748C600.374 329.9 600.758 328.268 601.526 326.852C602.294 325.436 603.35 324.32 604.694 323.504C606.062 322.688 607.646 322.28 609.446 322.28C611.27 322.28 612.854 322.688 614.198 323.504C615.566 324.32 616.622 325.436 617.366 326.852C618.134 328.268 618.518 329.9 618.518 331.748C618.518 333.572 618.134 335.216 617.366 336.68C616.622 338.12 615.566 339.26 614.198 340.1C612.854 340.94 611.27 341.36 609.446 341.36ZM609.446 338.912C610.694 338.912 611.774 338.612 612.686 338.012C613.598 337.388 614.306 336.536 614.81 335.456C615.314 334.376 615.566 333.128 615.566 331.712C615.566 329.6 615.002 327.908 613.874 326.636C612.77 325.364 611.294 324.728 609.446 324.728C607.622 324.728 606.146 325.364 605.018 326.636C603.89 327.908 603.326 329.6 603.326 331.712C603.326 333.128 603.578 334.376 604.082 335.456C604.586 336.536 605.294 337.388 606.206 338.012C607.142 338.612 608.222 338.912 609.446 338.912ZM637.316 341.36C635.636 341.36 634.136 340.952 632.816 340.136C631.52 339.296 630.488 338.156 629.72 336.716C628.976 335.252 628.604 333.596 628.604 331.748C628.604 329.9 628.976 328.268 629.72 326.852C630.488 325.436 631.52 324.32 632.816 323.504C634.136 322.688 635.624 322.28 637.28 322.28C638.648 322.28 639.872 322.544 640.952 323.072C642.056 323.6 642.956 324.356 643.652 325.34C644.372 326.3 644.828 327.428 645.02 328.724H642.356C642.116 327.548 641.564 326.588 640.7 325.844C639.836 325.1 638.72 324.728 637.352 324.728C636.176 324.728 635.156 325.016 634.292 325.592C633.428 326.168 632.756 326.984 632.276 328.04C631.796 329.096 631.556 330.332 631.556 331.748C631.556 333.164 631.796 334.412 632.276 335.492C632.756 336.572 633.428 337.412 634.292 338.012C635.18 338.612 636.212 338.912 637.388 338.912C638.708 338.912 639.812 338.552 640.7 337.832C641.588 337.088 642.152 336.128 642.392 334.952H645.056C644.84 336.224 644.36 337.352 643.616 338.336C642.896 339.296 641.996 340.04 640.916 340.568C639.836 341.096 638.636 341.36 637.316 341.36ZM656.801 341.36C655.001 341.36 653.417 340.94 652.049 340.1C650.681 339.26 649.613 338.12 648.845 336.68C648.101 335.216 647.729 333.572 647.729 331.748C647.729 329.9 648.113 328.268 648.881 326.852C649.649 325.436 650.705 324.32 652.049 323.504C653.417 322.688 655.001 322.28 656.801 322.28C658.625 322.28 660.209 322.688 661.553 323.504C662.921 324.32 663.977 325.436 664.721 326.852C665.489 328.268 665.873 329.9 665.873 331.748C665.873 333.572 665.489 335.216 664.721 336.68C663.977 338.12 662.921 339.26 661.553 340.1C660.209 340.94 658.625 341.36 656.801 341.36ZM656.801 338.912C658.049 338.912 659.129 338.612 660.041 338.012C660.953 337.388 661.661 336.536 662.165 335.456C662.669 334.376 662.921 333.128 662.921 331.712C662.921 329.6 662.357 327.908 661.229 326.636C660.125 325.364 658.649 324.728 656.801 324.728C654.977 324.728 653.501 325.364 652.373 326.636C651.245 327.908 650.681 329.6 650.681 331.712C650.681 333.128 650.933 334.376 651.437 335.456C651.941 336.536 652.649 337.388 653.561 338.012C654.497 338.612 655.577 338.912 656.801 338.912ZM670.193 341V322.64H672.893V326.96H673.073V341H670.193ZM683.333 341V328.976C683.333 327.584 682.985 326.54 682.289 325.844C681.593 325.148 680.561 324.8 679.193 324.8C677.993 324.8 676.925 325.064 675.989 325.592C675.077 326.12 674.357 326.852 673.829 327.788C673.325 328.724 673.073 329.816 673.073 331.064L672.604 326.708C673.229 325.34 674.177 324.26 675.449 323.468C676.745 322.676 678.209 322.28 679.841 322.28C681.761 322.28 683.297 322.832 684.449 323.936C685.625 325.016 686.213 326.444 686.213 328.22V341H683.333ZM698.595 341.324C696.555 341.324 695.067 340.868 694.131 339.956C693.219 339.02 692.763 337.676 692.763 335.924V318.356L695.643 317.276V335.888C695.643 336.92 695.907 337.676 696.435 338.156C696.963 338.636 697.827 338.876 699.027 338.876C699.507 338.876 699.915 338.852 700.251 338.804C700.611 338.732 700.899 338.648 701.115 338.552V341C700.875 341.096 700.527 341.168 700.071 341.216C699.639 341.288 699.147 341.324 698.595 341.324ZM688.983 325.088V322.64H701.115V325.088H688.983ZM704.821 341V322.64H707.521V327.32H707.701V341H704.821ZM707.701 331.424L707.233 327.068C707.665 325.508 708.433 324.32 709.537 323.504C710.641 322.688 711.913 322.28 713.353 322.28C713.953 322.28 714.361 322.328 714.577 322.424V325.196C714.457 325.148 714.289 325.124 714.073 325.124C713.857 325.1 713.593 325.088 713.281 325.088C711.457 325.088 710.065 325.64 709.105 326.744C708.169 327.824 707.701 329.384 707.701 331.424ZM725.953 341.36C724.153 341.36 722.569 340.94 721.201 340.1C719.833 339.26 718.765 338.12 717.997 336.68C717.253 335.216 716.881 333.572 716.881 331.748C716.881 329.9 717.265 328.268 718.033 326.852C718.801 325.436 719.857 324.32 721.201 323.504C722.569 322.688 724.153 322.28 725.953 322.28C727.777 322.28 729.361 322.688 730.705 323.504C732.073 324.32 733.129 325.436 733.873 326.852C734.641 328.268 735.025 329.9 735.025 331.748C735.025 333.572 734.641 335.216 733.873 336.68C733.129 338.12 732.073 339.26 730.705 340.1C729.361 340.94 727.777 341.36 725.953 341.36ZM725.953 338.912C727.201 338.912 728.281 338.612 729.193 338.012C730.105 337.388 730.813 336.536 731.317 335.456C731.821 334.376 732.073 333.128 732.073 331.712C732.073 329.6 731.509 327.908 730.381 326.636C729.277 325.364 727.801 324.728 725.953 324.728C724.129 324.728 722.653 325.364 721.525 326.636C720.397 327.908 719.833 329.6 719.833 331.712C719.833 333.128 720.085 334.376 720.589 335.456C721.093 336.536 721.801 337.388 722.713 338.012C723.649 338.612 724.729 338.912 725.953 338.912ZM739.345 341V315.08H742.225V341H739.345ZM762.544 341.324C760.504 341.324 759.016 340.868 758.08 339.956C757.168 339.02 756.712 337.676 756.712 335.924V318.356L759.592 317.276V335.888C759.592 336.92 759.856 337.676 760.384 338.156C760.912 338.636 761.776 338.876 762.976 338.876C763.456 338.876 763.864 338.852 764.2 338.804C764.56 338.732 764.848 338.648 765.064 338.552V341C764.824 341.096 764.476 341.168 764.02 341.216C763.588 341.288 763.096 341.324 762.544 341.324ZM752.932 325.088V322.64H765.064V325.088H752.932ZM768.771 341V315.08H771.651V341H768.771ZM781.911 341V328.976C781.911 327.584 781.563 326.54 780.867 325.844C780.171 325.148 779.139 324.8 777.771 324.8C776.571 324.8 775.503 325.064 774.567 325.592C773.655 326.12 772.935 326.852 772.407 327.788C771.903 328.724 771.651 329.816 771.651 331.064L771.183 326.708C771.807 325.34 772.755 324.26 774.027 323.468C775.323 322.676 776.787 322.28 778.419 322.28C780.339 322.28 781.875 322.832 783.027 323.936C784.203 325.016 784.791 326.444 784.791 328.22V341H781.911ZM797.845 341.36C796.093 341.36 794.545 340.952 793.201 340.136C791.857 339.296 790.801 338.156 790.033 336.716C789.265 335.276 788.881 333.62 788.881 331.748C788.881 329.876 789.253 328.232 789.997 326.816C790.765 325.376 791.833 324.26 793.201 323.468C794.569 322.676 796.141 322.28 797.917 322.28C799.621 322.28 801.097 322.652 802.345 323.396C803.617 324.14 804.589 325.184 805.261 326.528C805.957 327.872 806.305 329.456 806.305 331.28C806.305 331.52 806.293 331.748 806.269 331.964C806.269 332.18 806.245 332.42 806.197 332.684H791.041V330.272H804.433L803.497 331.604C803.497 329.396 803.005 327.704 802.021 326.528C801.061 325.328 799.693 324.728 797.917 324.728C796.093 324.728 794.617 325.364 793.489 326.636C792.385 327.884 791.833 329.576 791.833 331.712C791.833 333.896 792.385 335.648 793.489 336.968C794.617 338.264 796.117 338.912 797.989 338.912C799.165 338.912 800.197 338.66 801.085 338.156C801.973 337.628 802.621 336.884 803.029 335.924H805.765C805.165 337.604 804.157 338.936 802.741 339.92C801.349 340.88 799.717 341.36 797.845 341.36ZM826.921 341.324C825.193 341.324 823.741 340.904 822.565 340.064C821.389 339.224 820.585 338.036 820.153 336.5L820.729 336.428V348.38H817.849V322.64H820.549V326.924L820.153 326.816C820.609 325.4 821.473 324.296 822.745 323.504C824.017 322.688 825.493 322.28 827.173 322.28C828.805 322.28 830.221 322.676 831.421 323.468C832.645 324.26 833.593 325.364 834.265 326.78C834.937 328.196 835.273 329.852 835.273 331.748C835.273 333.668 834.925 335.348 834.229 336.788C833.533 338.228 832.561 339.344 831.313 340.136C830.065 340.928 828.601 341.324 826.921 341.324ZM826.489 338.804C828.313 338.804 829.741 338.18 830.773 336.932C831.805 335.66 832.321 333.932 832.321 331.748C832.321 329.588 831.805 327.896 830.773 326.672C829.741 325.424 828.313 324.8 826.489 324.8C824.665 324.8 823.225 325.436 822.169 326.708C821.113 327.956 820.585 329.672 820.585 331.856C820.585 333.992 821.113 335.684 822.169 336.932C823.225 338.18 824.665 338.804 826.489 338.804ZM839.681 341V315.08H842.561V341H839.681ZM859.597 341C859.501 340.592 859.429 340.124 859.381 339.596C859.357 339.068 859.345 338.396 859.345 337.58H859.165V328.796C859.165 327.404 858.841 326.384 858.193 325.736C857.569 325.064 856.549 324.728 855.133 324.728C853.741 324.728 852.625 325.016 851.785 325.592C850.969 326.144 850.513 326.936 850.417 327.968H847.645C847.765 326.192 848.509 324.8 849.877 323.792C851.245 322.784 853.033 322.28 855.241 322.28C857.521 322.28 859.213 322.82 860.317 323.9C861.421 324.98 861.973 326.6 861.973 328.76V337.58C861.973 338.108 862.009 338.66 862.081 339.236C862.153 339.788 862.249 340.376 862.369 341H859.597ZM853.297 341.36C851.401 341.36 849.889 340.904 848.761 339.992C847.657 339.056 847.105 337.784 847.105 336.176C847.105 334.568 847.657 333.32 848.761 332.432C849.865 331.544 851.473 330.92 853.585 330.56L859.993 329.48V331.856L854.017 332.792C852.673 333.008 851.653 333.368 850.957 333.872C850.261 334.376 849.913 335.108 849.913 336.068C849.913 337.004 850.225 337.712 850.849 338.192C851.497 338.672 852.445 338.912 853.693 338.912C855.301 338.912 856.609 338.552 857.617 337.832C858.649 337.088 859.165 336.128 859.165 334.952L859.633 337.508C859.249 338.732 858.493 339.68 857.365 340.352C856.261 341.024 854.905 341.36 853.297 341.36ZM868.3 348.38L872.404 338.84L873.052 337.832L879.064 322.64H882.016L871.36 348.38H868.3ZM872.728 341.18L864.484 322.64H867.652L874.744 339.236L872.728 341.18ZM892.627 341.36C890.875 341.36 889.327 340.952 887.983 340.136C886.639 339.296 885.583 338.156 884.815 336.716C884.047 335.276 883.663 333.62 883.663 331.748C883.663 329.876 884.035 328.232 884.779 326.816C885.547 325.376 886.615 324.26 887.983 323.468C889.351 322.676 890.923 322.28 892.699 322.28C894.403 322.28 895.879 322.652 897.127 323.396C898.399 324.14 899.371 325.184 900.043 326.528C900.739 327.872 901.087 329.456 901.087 331.28C901.087 331.52 901.075 331.748 901.051 331.964C901.051 332.18 901.027 332.42 900.979 332.684H885.823V330.272H899.215L898.279 331.604C898.279 329.396 897.787 327.704 896.803 326.528C895.843 325.328 894.475 324.728 892.699 324.728C890.875 324.728 889.399 325.364 888.271 326.636C887.167 327.884 886.615 329.576 886.615 331.712C886.615 333.896 887.167 335.648 888.271 336.968C889.399 338.264 890.899 338.912 892.771 338.912C893.947 338.912 894.979 338.66 895.867 338.156C896.755 337.628 897.403 336.884 897.811 335.924H900.547C899.947 337.604 898.939 338.936 897.523 339.92C896.131 340.88 894.499 341.36 892.627 341.36ZM905.423 341V322.64H908.123V327.32H908.303V341H905.423ZM908.303 331.424L907.835 327.068C908.267 325.508 909.035 324.32 910.139 323.504C911.243 322.688 912.515 322.28 913.955 322.28C914.555 322.28 914.963 322.328 915.179 322.424V325.196C915.059 325.148 914.891 325.124 914.675 325.124C914.459 325.1 914.195 325.088 913.883 325.088C912.059 325.088 910.667 325.64 909.707 326.744C908.771 327.824 908.303 329.384 908.303 331.424ZM915.158 341V337.292H918.866V341H915.158ZM278.75 385V359.08H281.702V385H278.75ZM296.102 385V359.08H299.054V385H296.102ZM280.262 370.204H297.398V372.796H280.262V370.204ZM305.042 385V366.64H307.922V385H305.042ZM304.826 362.464V359.08H308.138V362.464H304.826ZM320.964 385.324C318.924 385.324 317.436 384.868 316.5 383.956C315.588 383.02 315.132 381.676 315.132 379.924V362.356L318.012 361.276V379.888C318.012 380.92 318.276 381.676 318.804 382.156C319.332 382.636 320.196 382.876 321.396 382.876C321.876 382.876 322.284 382.852 322.62 382.804C322.98 382.732 323.268 382.648 323.484 382.552V385C323.244 385.096 322.896 385.168 322.44 385.216C322.008 385.288 321.516 385.324 320.964 385.324ZM311.352 369.088V366.64H323.484V369.088H311.352ZM341.742 385.324C339.702 385.324 338.214 384.868 337.278 383.956C336.366 383.02 335.91 381.676 335.91 379.924V362.356L338.79 361.276V379.888C338.79 380.92 339.054 381.676 339.582 382.156C340.11 382.636 340.974 382.876 342.174 382.876C342.654 382.876 343.062 382.852 343.398 382.804C343.758 382.732 344.046 382.648 344.262 382.552V385C344.022 385.096 343.674 385.168 343.218 385.216C342.786 385.288 342.294 385.324 341.742 385.324ZM332.13 369.088V366.64H344.262V369.088H332.13ZM347.968 385V359.08H350.848V385H347.968ZM361.108 385V372.976C361.108 371.584 360.76 370.54 360.064 369.844C359.368 369.148 358.336 368.8 356.968 368.8C355.768 368.8 354.7 369.064 353.764 369.592C352.852 370.12 352.132 370.852 351.604 371.788C351.1 372.724 350.848 373.816 350.848 375.064L350.38 370.708C351.004 369.34 351.952 368.26 353.224 367.468C354.52 366.676 355.984 366.28 357.616 366.28C359.536 366.28 361.072 366.832 362.224 367.936C363.4 369.016 363.988 370.444 363.988 372.22V385H361.108ZM377.043 385.36C375.291 385.36 373.743 384.952 372.399 384.136C371.055 383.296 369.999 382.156 369.231 380.716C368.463 379.276 368.079 377.62 368.079 375.748C368.079 373.876 368.451 372.232 369.195 370.816C369.963 369.376 371.031 368.26 372.399 367.468C373.767 366.676 375.339 366.28 377.115 366.28C378.819 366.28 380.295 366.652 381.543 367.396C382.815 368.14 383.787 369.184 384.459 370.528C385.155 371.872 385.503 373.456 385.503 375.28C385.503 375.52 385.491 375.748 385.467 375.964C385.467 376.18 385.443 376.42 385.395 376.684H370.239V374.272H383.631L382.695 375.604C382.695 373.396 382.203 371.704 381.219 370.528C380.259 369.328 378.891 368.728 377.115 368.728C375.291 368.728 373.815 369.364 372.687 370.636C371.583 371.884 371.031 373.576 371.031 375.712C371.031 377.896 371.583 379.648 372.687 380.968C373.815 382.264 375.315 382.912 377.187 382.912C378.363 382.912 379.395 382.66 380.283 382.156C381.171 381.628 381.819 380.884 382.227 379.924H384.963C384.363 381.604 383.355 382.936 381.939 383.92C380.547 384.88 378.915 385.36 377.043 385.36ZM404.318 385.36C402.638 385.36 401.138 384.952 399.818 384.136C398.522 383.296 397.49 382.156 396.722 380.716C395.978 379.252 395.606 377.596 395.606 375.748C395.606 373.9 395.978 372.268 396.722 370.852C397.49 369.436 398.522 368.32 399.818 367.504C401.138 366.688 402.626 366.28 404.282 366.28C405.65 366.28 406.874 366.544 407.954 367.072C409.058 367.6 409.958 368.356 410.654 369.34C411.374 370.3 411.83 371.428 412.022 372.724H409.358C409.118 371.548 408.566 370.588 407.702 369.844C406.838 369.1 405.722 368.728 404.354 368.728C403.178 368.728 402.158 369.016 401.294 369.592C400.43 370.168 399.758 370.984 399.278 372.04C398.798 373.096 398.558 374.332 398.558 375.748C398.558 377.164 398.798 378.412 399.278 379.492C399.758 380.572 400.43 381.412 401.294 382.012C402.182 382.612 403.214 382.912 404.39 382.912C405.71 382.912 406.814 382.552 407.702 381.832C408.59 381.088 409.154 380.128 409.394 378.952H412.058C411.842 380.224 411.362 381.352 410.618 382.336C409.898 383.296 408.998 384.04 407.918 384.568C406.838 385.096 405.638 385.36 404.318 385.36ZM423.803 385.36C422.003 385.36 420.419 384.94 419.051 384.1C417.683 383.26 416.615 382.12 415.847 380.68C415.103 379.216 414.731 377.572 414.731 375.748C414.731 373.9 415.115 372.268 415.883 370.852C416.651 369.436 417.707 368.32 419.051 367.504C420.419 366.688 422.003 366.28 423.803 366.28C425.627 366.28 427.211 366.688 428.555 367.504C429.923 368.32 430.979 369.436 431.723 370.852C432.491 372.268 432.875 373.9 432.875 375.748C432.875 377.572 432.491 379.216 431.723 380.68C430.979 382.12 429.923 383.26 428.555 384.1C427.211 384.94 425.627 385.36 423.803 385.36ZM423.803 382.912C425.051 382.912 426.131 382.612 427.043 382.012C427.955 381.388 428.663 380.536 429.167 379.456C429.671 378.376 429.923 377.128 429.923 375.712C429.923 373.6 429.359 371.908 428.231 370.636C427.127 369.364 425.651 368.728 423.803 368.728C421.979 368.728 420.503 369.364 419.375 370.636C418.247 371.908 417.683 373.6 417.683 375.712C417.683 377.128 417.935 378.376 418.439 379.456C418.943 380.536 419.651 381.388 420.563 382.012C421.499 382.612 422.579 382.912 423.803 382.912ZM437.194 385V366.64H439.894V371.32H440.074V385H437.194ZM440.074 375.424L439.606 371.068C440.038 369.508 440.806 368.32 441.91 367.504C443.014 366.688 444.286 366.28 445.726 366.28C446.326 366.28 446.734 366.328 446.95 366.424V369.196C446.83 369.148 446.662 369.124 446.446 369.124C446.23 369.1 445.966 369.088 445.654 369.088C443.83 369.088 442.438 369.64 441.478 370.744C440.542 371.824 440.074 373.384 440.074 375.424ZM450.694 385V366.64H453.394V371.32H453.574V385H450.694ZM453.574 375.424L453.106 371.068C453.538 369.508 454.306 368.32 455.41 367.504C456.514 366.688 457.786 366.28 459.226 366.28C459.826 366.28 460.234 366.328 460.45 366.424V369.196C460.33 369.148 460.162 369.124 459.946 369.124C459.73 369.1 459.466 369.088 459.154 369.088C457.33 369.088 455.938 369.64 454.978 370.744C454.042 371.824 453.574 373.384 453.574 375.424ZM471.086 385.36C469.334 385.36 467.786 384.952 466.442 384.136C465.098 383.296 464.042 382.156 463.274 380.716C462.506 379.276 462.122 377.62 462.122 375.748C462.122 373.876 462.494 372.232 463.238 370.816C464.006 369.376 465.074 368.26 466.442 367.468C467.81 366.676 469.382 366.28 471.158 366.28C472.862 366.28 474.338 366.652 475.586 367.396C476.858 368.14 477.83 369.184 478.502 370.528C479.198 371.872 479.546 373.456 479.546 375.28C479.546 375.52 479.534 375.748 479.51 375.964C479.51 376.18 479.486 376.42 479.438 376.684H464.282V374.272H477.674L476.738 375.604C476.738 373.396 476.246 371.704 475.262 370.528C474.302 369.328 472.934 368.728 471.158 368.728C469.334 368.728 467.858 369.364 466.73 370.636C465.626 371.884 465.074 373.576 465.074 375.712C465.074 377.896 465.626 379.648 466.73 380.968C467.858 382.264 469.358 382.912 471.23 382.912C472.406 382.912 473.438 382.66 474.326 382.156C475.214 381.628 475.862 380.884 476.27 379.924H479.006C478.406 381.604 477.398 382.936 475.982 383.92C474.59 384.88 472.958 385.36 471.086 385.36ZM491.154 385.36C489.474 385.36 487.974 384.952 486.654 384.136C485.358 383.296 484.326 382.156 483.558 380.716C482.814 379.252 482.442 377.596 482.442 375.748C482.442 373.9 482.814 372.268 483.558 370.852C484.326 369.436 485.358 368.32 486.654 367.504C487.974 366.688 489.462 366.28 491.118 366.28C492.486 366.28 493.71 366.544 494.79 367.072C495.894 367.6 496.794 368.356 497.49 369.34C498.21 370.3 498.666 371.428 498.858 372.724H496.194C495.954 371.548 495.402 370.588 494.538 369.844C493.674 369.1 492.558 368.728 491.19 368.728C490.014 368.728 488.994 369.016 488.13 369.592C487.266 370.168 486.594 370.984 486.114 372.04C485.634 373.096 485.394 374.332 485.394 375.748C485.394 377.164 485.634 378.412 486.114 379.492C486.594 380.572 487.266 381.412 488.13 382.012C489.018 382.612 490.05 382.912 491.226 382.912C492.546 382.912 493.65 382.552 494.538 381.832C495.426 381.088 495.99 380.128 496.23 378.952H498.894C498.678 380.224 498.198 381.352 497.454 382.336C496.734 383.296 495.834 384.04 494.754 384.568C493.674 385.096 492.474 385.36 491.154 385.36ZM510.351 385.324C508.311 385.324 506.823 384.868 505.887 383.956C504.975 383.02 504.519 381.676 504.519 379.924V362.356L507.399 361.276V379.888C507.399 380.92 507.663 381.676 508.191 382.156C508.719 382.636 509.583 382.876 510.783 382.876C511.263 382.876 511.671 382.852 512.007 382.804C512.367 382.732 512.655 382.648 512.871 382.552V385C512.631 385.096 512.283 385.168 511.827 385.216C511.395 385.288 510.903 385.324 510.351 385.324ZM500.739 369.088V366.64H512.871V369.088H500.739ZM523.784 385V366.64H526.484V370.96H526.664V385H523.784ZM536.924 385V372.976C536.924 371.584 536.576 370.54 535.88 369.844C535.184 369.148 534.152 368.8 532.784 368.8C531.584 368.8 530.516 369.064 529.58 369.592C528.668 370.12 527.948 370.852 527.42 371.788C526.916 372.724 526.664 373.816 526.664 375.064L526.196 370.708C526.82 369.34 527.768 368.26 529.04 367.468C530.336 366.676 531.8 366.28 533.432 366.28C535.352 366.28 536.888 366.832 538.04 367.936C539.216 369.016 539.804 370.444 539.804 372.22V385H536.924ZM552.967 385.36C551.167 385.36 549.583 384.94 548.215 384.1C546.847 383.26 545.779 382.12 545.011 380.68C544.267 379.216 543.895 377.572 543.895 375.748C543.895 373.9 544.279 372.268 545.047 370.852C545.815 369.436 546.871 368.32 548.215 367.504C549.583 366.688 551.167 366.28 552.967 366.28C554.791 366.28 556.375 366.688 557.719 367.504C559.087 368.32 560.143 369.436 560.887 370.852C561.655 372.268 562.039 373.9 562.039 375.748C562.039 377.572 561.655 379.216 560.887 380.68C560.143 382.12 559.087 383.26 557.719 384.1C556.375 384.94 554.791 385.36 552.967 385.36ZM552.967 382.912C554.215 382.912 555.295 382.612 556.207 382.012C557.119 381.388 557.827 380.536 558.331 379.456C558.835 378.376 559.087 377.128 559.087 375.712C559.087 373.6 558.523 371.908 557.395 370.636C556.291 369.364 554.815 368.728 552.967 368.728C551.143 368.728 549.667 369.364 548.539 370.636C547.411 371.908 546.847 373.6 546.847 375.712C546.847 377.128 547.099 378.376 547.603 379.456C548.107 380.536 548.815 381.388 549.727 382.012C550.663 382.612 551.743 382.912 552.967 382.912ZM573.527 385.324C571.487 385.324 569.999 384.868 569.063 383.956C568.151 383.02 567.695 381.676 567.695 379.924V362.356L570.575 361.276V379.888C570.575 380.92 570.839 381.676 571.367 382.156C571.895 382.636 572.759 382.876 573.959 382.876C574.439 382.876 574.847 382.852 575.183 382.804C575.543 382.732 575.831 382.648 576.047 382.552V385C575.807 385.096 575.459 385.168 575.003 385.216C574.571 385.288 574.079 385.324 573.527 385.324ZM563.915 369.088V366.64H576.047V369.088H563.915ZM586.89 385.36C585.138 385.36 583.59 384.952 582.246 384.136C580.902 383.296 579.846 382.156 579.078 380.716C578.31 379.276 577.926 377.62 577.926 375.748C577.926 373.876 578.298 372.232 579.042 370.816C579.81 369.376 580.878 368.26 582.246 367.468C583.614 366.676 585.186 366.28 586.962 366.28C588.666 366.28 590.142 366.652 591.39 367.396C592.662 368.14 593.634 369.184 594.306 370.528C595.002 371.872 595.35 373.456 595.35 375.28C595.35 375.52 595.338 375.748 595.314 375.964C595.314 376.18 595.29 376.42 595.242 376.684H580.086V374.272H593.478L592.542 375.604C592.542 373.396 592.05 371.704 591.066 370.528C590.106 369.328 588.738 368.728 586.962 368.728C585.138 368.728 583.662 369.364 582.534 370.636C581.43 371.884 580.878 373.576 580.878 375.712C580.878 377.896 581.43 379.648 582.534 380.968C583.662 382.264 585.162 382.912 587.034 382.912C588.21 382.912 589.242 382.66 590.13 382.156C591.018 381.628 591.666 380.884 592.074 379.924H594.81C594.21 381.604 593.202 382.936 591.786 383.92C590.394 384.88 588.762 385.36 586.89 385.36ZM605.915 385.36C603.659 385.36 601.859 384.844 600.515 383.812C599.171 382.756 598.403 381.268 598.211 379.348H600.983C601.151 380.524 601.667 381.424 602.531 382.048C603.395 382.672 604.547 382.984 605.987 382.984C607.259 382.984 608.255 382.744 608.975 382.264C609.695 381.784 610.055 381.1 610.055 380.212C610.055 379.588 609.851 379.048 609.443 378.592C609.035 378.112 608.219 377.716 606.995 377.404L604.043 376.648C602.363 376.216 601.103 375.556 600.263 374.668C599.423 373.756 599.003 372.676 599.003 371.428C599.003 369.844 599.591 368.596 600.767 367.684C601.943 366.748 603.539 366.28 605.555 366.28C607.547 366.28 609.167 366.76 610.415 367.72C611.663 368.68 612.371 370.012 612.539 371.716H609.767C609.599 370.732 609.143 369.976 608.399 369.448C607.655 368.92 606.671 368.656 605.447 368.656C604.271 368.656 603.359 368.884 602.711 369.34C602.063 369.772 601.739 370.396 601.739 371.212C601.739 371.836 601.967 372.376 602.423 372.832C602.903 373.288 603.695 373.672 604.799 373.984L607.679 374.776C609.383 375.232 610.667 375.928 611.531 376.864C612.395 377.8 612.827 378.928 612.827 380.248C612.827 381.856 612.215 383.116 610.991 384.028C609.767 384.916 608.075 385.36 605.915 385.36ZM623.909 376.576V373.84H636.365V376.576H623.909ZM660.595 385C660.499 384.592 660.427 384.124 660.379 383.596C660.355 383.068 660.343 382.396 660.343 381.58H660.163V372.796C660.163 371.404 659.839 370.384 659.191 369.736C658.567 369.064 657.547 368.728 656.131 368.728C654.739 368.728 653.623 369.016 652.783 369.592C651.967 370.144 651.511 370.936 651.415 371.968H648.643C648.763 370.192 649.507 368.8 650.875 367.792C652.243 366.784 654.031 366.28 656.239 366.28C658.519 366.28 660.211 366.82 661.315 367.9C662.419 368.98 662.971 370.6 662.971 372.76V381.58C662.971 382.108 663.007 382.66 663.079 383.236C663.151 383.788 663.247 384.376 663.367 385H660.595ZM654.295 385.36C652.399 385.36 650.887 384.904 649.759 383.992C648.655 383.056 648.103 381.784 648.103 380.176C648.103 378.568 648.655 377.32 649.759 376.432C650.863 375.544 652.471 374.92 654.583 374.56L660.991 373.48V375.856L655.015 376.792C653.671 377.008 652.651 377.368 651.955 377.872C651.259 378.376 650.911 379.108 650.911 380.068C650.911 381.004 651.223 381.712 651.847 382.192C652.495 382.672 653.443 382.912 654.691 382.912C656.299 382.912 657.607 382.552 658.615 381.832C659.647 381.088 660.163 380.128 660.163 378.952L660.631 381.508C660.247 382.732 659.491 383.68 658.363 384.352C657.259 385.024 655.903 385.36 654.295 385.36ZM668.523 385V366.64H671.223V370.96H671.403V385H668.523ZM681.663 385V372.976C681.663 371.584 681.315 370.54 680.619 369.844C679.923 369.148 678.891 368.8 677.523 368.8C676.323 368.8 675.255 369.064 674.319 369.592C673.407 370.12 672.687 370.852 672.159 371.788C671.655 372.724 671.403 373.816 671.403 375.064L670.935 370.708C671.559 369.34 672.507 368.26 673.779 367.468C675.075 366.676 676.539 366.28 678.171 366.28C680.091 366.28 681.627 366.832 682.779 367.936C683.955 369.016 684.543 370.444 684.543 372.22V385H681.663ZM703.429 385V380.716L703.789 380.824C703.333 382.216 702.493 383.32 701.269 384.136C700.069 384.952 698.629 385.36 696.949 385.36C695.293 385.36 693.841 384.964 692.593 384.172C691.369 383.38 690.409 382.276 689.713 380.86C689.041 379.444 688.705 377.788 688.705 375.892C688.705 373.972 689.053 372.292 689.749 370.852C690.445 369.412 691.417 368.296 692.665 367.504C693.913 366.712 695.377 366.316 697.057 366.316C698.785 366.316 700.237 366.736 701.413 367.576C702.589 368.416 703.393 369.604 703.825 371.14L703.249 371.212V359.08H706.129V385H703.429ZM697.489 382.84C699.337 382.84 700.777 382.216 701.809 380.968C702.865 379.696 703.393 377.968 703.393 375.784C703.393 373.648 702.865 371.956 701.809 370.708C700.753 369.46 699.313 368.836 697.489 368.836C695.665 368.836 694.237 369.46 693.205 370.708C692.173 371.956 691.657 373.684 691.657 375.892C691.657 378.052 692.173 379.756 693.205 381.004C694.237 382.228 695.665 382.84 697.489 382.84ZM720.696 392.38L724.8 382.84L725.448 381.832L731.46 366.64H734.412L723.756 392.38H720.696ZM725.124 385.18L716.88 366.64H720.048L727.14 383.236L725.124 385.18ZM745.131 385.36C743.331 385.36 741.747 384.94 740.379 384.1C739.011 383.26 737.943 382.12 737.175 380.68C736.431 379.216 736.059 377.572 736.059 375.748C736.059 373.9 736.443 372.268 737.211 370.852C737.979 369.436 739.035 368.32 740.379 367.504C741.747 366.688 743.331 366.28 745.131 366.28C746.955 366.28 748.539 366.688 749.883 367.504C751.251 368.32 752.307 369.436 753.051 370.852C753.819 372.268 754.203 373.9 754.203 375.748C754.203 377.572 753.819 379.216 753.051 380.68C752.307 382.12 751.251 383.26 749.883 384.1C748.539 384.94 746.955 385.36 745.131 385.36ZM745.131 382.912C746.379 382.912 747.459 382.612 748.371 382.012C749.283 381.388 749.991 380.536 750.495 379.456C750.999 378.376 751.251 377.128 751.251 375.712C751.251 373.6 750.687 371.908 749.559 370.636C748.455 369.364 746.979 368.728 745.131 368.728C743.307 368.728 741.831 369.364 740.703 370.636C739.575 371.908 739.011 373.6 739.011 375.712C739.011 377.128 739.263 378.376 739.767 379.456C740.271 380.536 740.979 381.388 741.891 382.012C742.827 382.612 743.907 382.912 745.131 382.912ZM764.499 385.36C763.299 385.36 762.231 385.12 761.295 384.64C760.359 384.136 759.627 383.44 759.099 382.552C758.571 381.64 758.307 380.596 758.307 379.42V366.64H761.187V378.664C761.187 380.056 761.523 381.1 762.195 381.796C762.891 382.492 763.875 382.84 765.147 382.84C766.299 382.84 767.319 382.576 768.207 382.048C769.095 381.52 769.791 380.788 770.295 379.852C770.823 378.892 771.087 377.8 771.087 376.576L771.555 380.932C770.955 382.3 770.019 383.38 768.747 384.172C767.475 384.964 766.059 385.36 764.499 385.36ZM771.267 385V380.68H771.087V366.64H773.967V385H771.267ZM777.288 366.604V365.128C778.104 365.032 778.68 364.72 779.016 364.192C779.352 363.664 779.52 362.824 779.52 361.672L780.6 361.816H777.324V358.216H781.176V361.024C781.176 362.56 780.864 363.82 780.24 364.804C779.64 365.788 778.656 366.388 777.288 366.604ZM786.788 385V359.08H789.668V385H786.788ZM795.437 385V359.08H798.317V385H795.437ZM811.292 385V359.08H814.172V385H811.292ZM819.941 385V366.64H822.821V385H819.941ZM819.725 362.464V359.08H823.037V362.464H819.725ZM833.707 385L826.111 366.64H829.207L835.543 383.056H834.391L840.691 366.64H843.643L836.047 385H833.707ZM854.254 385.36C852.502 385.36 850.954 384.952 849.61 384.136C848.266 383.296 847.21 382.156 846.442 380.716C845.674 379.276 845.29 377.62 845.29 375.748C845.29 373.876 845.662 372.232 846.406 370.816C847.174 369.376 848.242 368.26 849.61 367.468C850.978 366.676 852.55 366.28 854.326 366.28C856.03 366.28 857.506 366.652 858.754 367.396C860.026 368.14 860.998 369.184 861.67 370.528C862.366 371.872 862.714 373.456 862.714 375.28C862.714 375.52 862.702 375.748 862.678 375.964C862.678 376.18 862.654 376.42 862.606 376.684H847.45V374.272H860.842L859.906 375.604C859.906 373.396 859.414 371.704 858.43 370.528C857.47 369.328 856.102 368.728 854.326 368.728C852.502 368.728 851.026 369.364 849.898 370.636C848.794 371.884 848.242 373.576 848.242 375.712C848.242 377.896 848.794 379.648 849.898 380.968C851.026 382.264 852.526 382.912 854.398 382.912C855.574 382.912 856.606 382.66 857.494 382.156C858.382 381.628 859.03 380.884 859.438 379.924H862.174C861.574 381.604 860.566 382.936 859.15 383.92C857.758 384.88 856.126 385.36 854.254 385.36ZM867.282 377.44L866.85 358.36H869.946L869.514 377.44H867.282ZM866.562 385V381.292H870.27V385H866.562Z" fill="black"/>
<path d="M363.224 449V431.72H370.088C371.32 431.72 372.368 431.92 373.232 432.32C374.096 432.72 374.752 433.296 375.2 434.048C375.664 434.8 375.896 435.704 375.896 436.76C375.896 437.816 375.664 438.728 375.2 439.496C374.752 440.248 374.096 440.832 373.232 441.248C372.368 441.664 371.32 441.872 370.088 441.872H364.664V440.144H370.016C371.296 440.144 372.264 439.856 372.92 439.28C373.592 438.688 373.928 437.848 373.928 436.76C373.928 435.672 373.6 434.848 372.944 434.288C372.288 433.728 371.312 433.448 370.016 433.448H365.192V449H363.224ZM384.525 449.216C382.509 449.216 380.901 448.72 379.701 447.728C378.517 446.736 377.821 445.32 377.613 443.48H379.533C379.709 444.808 380.213 445.808 381.045 446.48C381.877 447.152 383.029 447.488 384.501 447.488C385.749 447.488 386.685 447.256 387.309 446.792C387.949 446.312 388.269 445.616 388.269 444.704C388.269 443.92 388.053 443.296 387.621 442.832C387.189 442.368 386.517 441.984 385.605 441.68L382.701 440.672C381.229 440.16 380.141 439.544 379.437 438.824C378.733 438.088 378.381 437.16 378.381 436.04C378.381 435.112 378.613 434.312 379.077 433.64C379.541 432.952 380.197 432.416 381.045 432.032C381.893 431.648 382.877 431.456 383.997 431.456C385.725 431.456 387.109 431.912 388.149 432.824C389.189 433.72 389.789 435 389.949 436.664H388.029C387.821 435.464 387.389 434.584 386.733 434.024C386.093 433.464 385.165 433.184 383.949 433.184C382.797 433.184 381.901 433.416 381.261 433.88C380.621 434.344 380.301 435 380.301 435.848C380.301 436.568 380.525 437.144 380.973 437.576C381.421 438.008 382.117 438.384 383.061 438.704L386.157 439.784C387.501 440.248 388.509 440.88 389.181 441.68C389.853 442.464 390.189 443.464 390.189 444.68C390.189 446.12 389.693 447.24 388.701 448.04C387.725 448.824 386.333 449.216 384.525 449.216ZM392.375 449V446.528H394.847V449H392.375ZM392.375 439.88V437.408H394.847V439.88H392.375ZM410.857 449.24C409.673 449.24 408.577 449.024 407.569 448.592C406.577 448.144 405.713 447.528 404.977 446.744C404.241 445.944 403.673 445.008 403.273 443.936C402.873 442.848 402.673 441.656 402.673 440.36C402.673 439.064 402.873 437.88 403.273 436.808C403.673 435.72 404.233 434.784 404.953 434C405.689 433.2 406.553 432.584 407.545 432.152C408.553 431.704 409.649 431.48 410.833 431.48C412.129 431.48 413.289 431.744 414.313 432.272C415.353 432.8 416.201 433.544 416.857 434.504C417.529 435.464 417.945 436.584 418.105 437.864H416.137C415.945 436.44 415.377 435.32 414.433 434.504C413.505 433.672 412.313 433.256 410.857 433.256C409.625 433.256 408.545 433.56 407.617 434.168C406.689 434.76 405.969 435.592 405.457 436.664C404.945 437.72 404.689 438.952 404.689 440.36C404.689 441.768 404.945 443.008 405.457 444.08C405.969 445.136 406.689 445.968 407.617 446.576C408.545 447.168 409.617 447.464 410.833 447.464C412.321 447.464 413.537 447.048 414.481 446.216C415.441 445.384 416.009 444.264 416.185 442.856H418.153C417.993 444.136 417.577 445.256 416.905 446.216C416.249 447.176 415.401 447.92 414.361 448.448C413.337 448.976 412.169 449.24 410.857 449.24ZM421.182 449V431.72H423.102V449H421.182ZM429.942 449V440.984C429.942 440.056 429.71 439.36 429.246 438.896C428.782 438.432 428.094 438.2 427.182 438.2C426.382 438.2 425.67 438.376 425.046 438.728C424.438 439.08 423.958 439.568 423.606 440.192C423.27 440.816 423.102 441.544 423.102 442.376L422.79 439.472C423.206 438.56 423.838 437.84 424.686 437.312C425.55 436.784 426.526 436.52 427.614 436.52C428.894 436.52 429.918 436.888 430.686 437.624C431.47 438.344 431.862 439.296 431.862 440.48V449H429.942ZM440.565 449.24C439.397 449.24 438.365 448.968 437.469 448.424C436.573 447.864 435.869 447.104 435.357 446.144C434.845 445.184 434.589 444.08 434.589 442.832C434.589 441.584 434.837 440.488 435.333 439.544C435.845 438.584 436.557 437.84 437.469 437.312C438.381 436.784 439.429 436.52 440.613 436.52C441.749 436.52 442.733 436.768 443.565 437.264C444.413 437.76 445.061 438.456 445.509 439.352C445.973 440.248 446.205 441.304 446.205 442.52C446.205 442.68 446.197 442.832 446.181 442.976C446.181 443.12 446.165 443.28 446.133 443.456H436.029V441.848H444.957L444.333 442.736C444.333 441.264 444.005 440.136 443.349 439.352C442.709 438.552 441.797 438.152 440.613 438.152C439.397 438.152 438.413 438.576 437.661 439.424C436.925 440.256 436.557 441.384 436.557 442.808C436.557 444.264 436.925 445.432 437.661 446.312C438.413 447.176 439.413 447.608 440.661 447.608C441.445 447.608 442.133 447.44 442.725 447.104C443.317 446.752 443.749 446.256 444.021 445.616H445.845C445.445 446.736 444.773 447.624 443.829 448.28C442.901 448.92 441.813 449.24 440.565 449.24ZM453.944 449.24C452.824 449.24 451.824 448.968 450.944 448.424C450.08 447.864 449.392 447.104 448.88 446.144C448.384 445.168 448.136 444.064 448.136 442.832C448.136 441.6 448.384 440.512 448.88 439.568C449.392 438.624 450.08 437.88 450.944 437.336C451.824 436.792 452.816 436.52 453.92 436.52C454.832 436.52 455.648 436.696 456.368 437.048C457.104 437.4 457.704 437.904 458.168 438.56C458.648 439.2 458.952 439.952 459.08 440.816H457.304C457.144 440.032 456.776 439.392 456.2 438.896C455.624 438.4 454.88 438.152 453.968 438.152C453.184 438.152 452.504 438.344 451.928 438.728C451.352 439.112 450.904 439.656 450.584 440.36C450.264 441.064 450.104 441.888 450.104 442.832C450.104 443.776 450.264 444.608 450.584 445.328C450.904 446.048 451.352 446.608 451.928 447.008C452.52 447.408 453.208 447.608 453.992 447.608C454.872 447.608 455.608 447.368 456.2 446.888C456.792 446.392 457.168 445.752 457.328 444.968H459.104C458.96 445.816 458.64 446.568 458.144 447.224C457.664 447.864 457.064 448.36 456.344 448.712C455.624 449.064 454.824 449.24 453.944 449.24ZM461.893 449V431.24H463.813V449H461.893ZM469.885 449L463.381 442.64L469.645 436.76H472.285L465.253 443.192L465.373 442.064L472.525 449H469.885ZM479.541 449V436.76H481.341V439.64H481.461V449H479.541ZM487.797 449V440.888C487.797 439.96 487.589 439.28 487.173 438.848C486.757 438.416 486.157 438.2 485.373 438.2C484.637 438.2 483.973 438.376 483.381 438.728C482.789 439.08 482.317 439.568 481.965 440.192C481.629 440.816 481.461 441.544 481.461 442.376L481.149 439.472C481.565 438.56 482.189 437.84 483.021 437.312C483.853 436.784 484.757 436.52 485.733 436.52C486.917 436.52 487.877 436.872 488.613 437.576C489.349 438.264 489.717 439.2 489.717 440.384V449H487.797ZM496.053 449V440.888C496.053 439.96 495.845 439.28 495.429 438.848C495.013 438.416 494.413 438.2 493.629 438.2C492.893 438.2 492.229 438.376 491.637 438.728C491.045 439.08 490.573 439.568 490.221 440.192C489.885 440.816 489.717 441.544 489.717 442.376L489.237 439.472C489.653 438.56 490.293 437.84 491.157 437.312C492.021 436.784 492.949 436.52 493.941 436.52C495.125 436.52 496.093 436.872 496.845 437.576C497.597 438.264 497.973 439.2 497.973 440.384V449H496.053ZM502.206 453.92L504.942 447.56L505.374 446.888L509.382 436.76H511.35L504.246 453.92H502.206ZM505.158 449.12L499.662 436.76H501.774L506.502 447.824L505.158 449.12ZM526.438 449.24C524.678 449.24 523.15 448.88 521.854 448.16C520.558 447.44 519.558 446.432 518.854 445.136C518.15 443.824 517.798 442.28 517.798 440.504C517.798 438.728 518.142 437.168 518.83 435.824C519.534 434.464 520.502 433.4 521.734 432.632C522.982 431.864 524.414 431.48 526.03 431.48C527.294 431.48 528.438 431.72 529.462 432.2C530.502 432.68 531.35 433.344 532.006 434.192C532.678 435.04 533.086 436.024 533.23 437.144H531.262C531.102 435.96 530.55 435.016 529.606 434.312C528.678 433.608 527.51 433.256 526.102 433.256C524.838 433.256 523.734 433.56 522.79 434.168C521.846 434.76 521.11 435.592 520.582 436.664C520.07 437.736 519.814 439 519.814 440.456C519.814 441.912 520.078 443.168 520.606 444.224C521.15 445.264 521.926 446.064 522.934 446.624C523.958 447.184 525.182 447.464 526.606 447.464C527.582 447.464 528.454 447.328 529.222 447.056C529.99 446.768 530.686 446.328 531.31 445.736L533.278 446.456C532.398 447.384 531.382 448.08 530.23 448.544C529.094 449.008 527.83 449.24 526.438 449.24ZM531.31 446.456V440.864L532.054 441.608H526.582V439.88H533.278V446.456H531.31ZM536.916 449V436.76H538.836V449H536.916ZM536.772 433.976V431.72H538.98V433.976H536.772ZM547.531 449.216C546.171 449.216 545.179 448.912 544.555 448.304C543.947 447.68 543.643 446.784 543.643 445.616V433.904L545.563 433.184V445.592C545.563 446.28 545.739 446.784 546.091 447.104C546.443 447.424 547.019 447.584 547.819 447.584C548.139 447.584 548.411 447.568 548.635 447.536C548.875 447.488 549.067 447.432 549.211 447.368V449C549.051 449.064 548.819 449.112 548.515 449.144C548.227 449.192 547.899 449.216 547.531 449.216ZM541.123 438.392V436.76H549.211V438.392H541.123ZM551.826 449V431.72H553.794V449H551.826ZM563.394 449V431.72H565.362V449H563.394ZM552.834 439.136H564.258V440.864H552.834V439.136ZM573.338 449.24C572.538 449.24 571.826 449.08 571.202 448.76C570.578 448.424 570.09 447.96 569.738 447.368C569.386 446.76 569.21 446.064 569.21 445.28V436.76H571.13V444.776C571.13 445.704 571.354 446.4 571.802 446.864C572.266 447.328 572.922 447.56 573.77 447.56C574.538 447.56 575.218 447.384 575.81 447.032C576.402 446.68 576.866 446.192 577.202 445.568C577.554 444.928 577.73 444.2 577.73 443.384L578.042 446.288C577.642 447.2 577.018 447.92 576.17 448.448C575.322 448.976 574.378 449.24 573.338 449.24ZM577.85 449V446.12H577.73V436.76H579.65V449H577.85ZM589.534 449.216C588.382 449.216 587.414 448.936 586.63 448.376C585.846 447.816 585.31 447.024 585.022 446L585.286 445.952V449H583.486V431.72H585.406V439.616L585.142 439.544C585.446 438.6 585.998 437.864 586.798 437.336C587.614 436.792 588.582 436.52 589.702 436.52C590.79 436.52 591.734 436.784 592.534 437.312C593.35 437.84 593.982 438.576 594.43 439.52C594.878 440.464 595.102 441.568 595.102 442.832C595.102 444.112 594.87 445.232 594.406 446.192C593.942 447.152 593.294 447.896 592.462 448.424C591.63 448.952 590.654 449.216 589.534 449.216ZM589.246 447.536C590.462 447.536 591.414 447.12 592.102 446.288C592.79 445.44 593.134 444.288 593.134 442.832C593.134 441.392 592.79 440.264 592.102 439.448C591.414 438.616 590.462 438.2 589.246 438.2C588.03 438.2 587.07 438.624 586.366 439.472C585.662 440.304 585.31 441.448 585.31 442.904C585.31 444.328 585.662 445.456 586.366 446.288C587.07 447.12 588.03 447.536 589.246 447.536ZM607.934 449.24C606.734 449.24 605.678 448.96 604.766 448.4C603.854 447.84 603.142 447.08 602.63 446.12C602.134 445.144 601.886 444.048 601.886 442.832C601.886 441.6 602.142 440.512 602.654 439.568C603.166 438.624 603.87 437.88 604.766 437.336C605.678 436.792 606.734 436.52 607.934 436.52C609.15 436.52 610.206 436.792 611.102 437.336C612.014 437.88 612.718 438.624 613.214 439.568C613.726 440.512 613.982 441.6 613.982 442.832C613.982 444.048 613.726 445.144 613.214 446.12C612.718 447.08 612.014 447.84 611.102 448.4C610.206 448.96 609.15 449.24 607.934 449.24ZM607.934 447.608C608.766 447.608 609.486 447.408 610.094 447.008C610.702 446.592 611.174 446.024 611.51 445.304C611.846 444.584 612.014 443.752 612.014 442.808C612.014 441.4 611.638 440.272 610.886 439.424C610.15 438.576 609.166 438.152 607.934 438.152C606.718 438.152 605.734 438.576 604.982 439.424C604.23 440.272 603.854 441.4 603.854 442.808C603.854 443.752 604.022 444.584 604.358 445.304C604.694 446.024 605.166 446.592 605.774 447.008C606.398 447.408 607.118 447.608 607.934 447.608ZM620.845 449.24C620.045 449.24 619.333 449.08 618.709 448.76C618.085 448.424 617.597 447.96 617.245 447.368C616.893 446.76 616.717 446.064 616.717 445.28V436.76H618.637V444.776C618.637 445.704 618.861 446.4 619.309 446.864C619.773 447.328 620.429 447.56 621.277 447.56C622.045 447.56 622.725 447.384 623.317 447.032C623.909 446.68 624.373 446.192 624.709 445.568C625.061 444.928 625.237 444.2 625.237 443.384L625.549 446.288C625.149 447.2 624.525 447.92 623.677 448.448C622.829 448.976 621.885 449.24 620.845 449.24ZM625.357 449V446.12H625.237V436.76H627.157V449H625.357ZM635.82 449.216C634.46 449.216 633.468 448.912 632.844 448.304C632.236 447.68 631.932 446.784 631.932 445.616V433.904L633.852 433.184V445.592C633.852 446.28 634.028 446.784 634.38 447.104C634.732 447.424 635.308 447.584 636.108 447.584C636.428 447.584 636.7 447.568 636.924 447.536C637.164 447.488 637.356 447.432 637.5 447.368V449C637.34 449.064 637.108 449.112 636.804 449.144C636.516 449.192 636.188 449.216 635.82 449.216ZM629.412 438.392V436.76H637.5V438.392H629.412ZM653.175 449.24C651.335 449.24 649.727 448.904 648.351 448.232C646.991 447.56 645.935 446.624 645.183 445.424C644.431 444.208 644.055 442.784 644.055 441.152C644.055 439.792 644.295 438.528 644.775 437.36C645.271 436.176 645.967 435.144 646.863 434.264C647.759 433.384 648.815 432.704 650.031 432.224C651.263 431.728 652.607 431.48 654.063 431.48C655.663 431.48 657.063 431.784 658.263 432.392C659.479 433 660.423 433.848 661.095 434.936C661.783 436.008 662.127 437.248 662.127 438.656C662.127 439.568 661.991 440.432 661.719 441.248C661.463 442.048 661.103 442.76 660.639 443.384C660.175 443.992 659.639 444.472 659.031 444.824C658.423 445.176 657.775 445.352 657.087 445.352C656.591 445.352 656.159 445.24 655.791 445.016C655.439 444.776 655.207 444.424 655.095 443.96C654.983 443.496 655.031 442.936 655.239 442.28L655.335 443.144C654.919 443.848 654.399 444.392 653.775 444.776C653.167 445.16 652.511 445.352 651.807 445.352C650.735 445.352 649.855 444.976 649.167 444.224C648.495 443.456 648.159 442.464 648.159 441.248C648.159 440.432 648.287 439.664 648.543 438.944C648.799 438.224 649.151 437.592 649.599 437.048C650.063 436.504 650.591 436.08 651.183 435.776C651.775 435.456 652.407 435.296 653.079 435.296C654.039 435.296 654.807 435.568 655.383 436.112C655.975 436.656 656.263 437.392 656.247 438.32L655.959 438.296L656.631 435.728H658.527L656.847 442.256C656.703 442.816 656.687 443.232 656.799 443.504C656.927 443.776 657.175 443.912 657.543 443.912C657.927 443.912 658.295 443.776 658.647 443.504C658.999 443.216 659.319 442.832 659.607 442.352C659.895 441.872 660.119 441.328 660.279 440.72C660.455 440.112 660.543 439.472 660.543 438.8C660.543 437.632 660.271 436.616 659.727 435.752C659.183 434.872 658.415 434.192 657.423 433.712C656.447 433.216 655.311 432.968 654.015 432.968C652.783 432.968 651.655 433.176 650.631 433.592C649.607 434.008 648.719 434.592 647.967 435.344C647.231 436.08 646.655 436.944 646.239 437.936C645.839 438.912 645.639 439.968 645.639 441.104C645.639 442.448 645.935 443.616 646.527 444.608C647.119 445.6 647.967 446.376 649.071 446.936C650.191 447.48 651.543 447.752 653.127 447.752C654.007 447.752 654.879 447.656 655.743 447.464C656.623 447.256 657.431 446.968 658.167 446.6L658.767 447.896C658.079 448.296 657.239 448.624 656.247 448.88C655.271 449.12 654.247 449.24 653.175 449.24ZM652.431 443.744C652.847 443.744 653.239 443.632 653.607 443.408C653.991 443.184 654.327 442.88 654.615 442.496C654.903 442.096 655.127 441.648 655.287 441.152C655.463 440.64 655.551 440.112 655.551 439.568C655.551 438.768 655.335 438.128 654.903 437.648C654.487 437.152 653.927 436.904 653.223 436.904C652.807 436.904 652.407 437.008 652.023 437.216C651.655 437.424 651.327 437.72 651.039 438.104C650.751 438.472 650.527 438.912 650.367 439.424C650.207 439.92 650.127 440.456 650.127 441.032C650.127 441.864 650.335 442.528 650.751 443.024C651.183 443.504 651.743 443.744 652.431 443.744ZM674.937 449.216C673.577 449.216 672.585 448.912 671.961 448.304C671.353 447.68 671.049 446.784 671.049 445.616V433.904L672.969 433.184V445.592C672.969 446.28 673.145 446.784 673.497 447.104C673.849 447.424 674.425 447.584 675.225 447.584C675.545 447.584 675.817 447.568 676.041 447.536C676.281 447.488 676.473 447.432 676.617 447.368V449C676.457 449.064 676.225 449.112 675.921 449.144C675.633 449.192 675.305 449.216 674.937 449.216ZM668.529 438.392V436.76H676.617V438.392H668.529ZM686.6 449C686.536 448.728 686.488 448.416 686.456 448.064C686.44 447.712 686.432 447.264 686.432 446.72H686.312V440.864C686.312 439.936 686.096 439.256 685.664 438.824C685.248 438.376 684.568 438.152 683.624 438.152C682.696 438.152 681.952 438.344 681.392 438.728C680.848 439.096 680.544 439.624 680.48 440.312H678.632C678.712 439.128 679.208 438.2 680.12 437.528C681.032 436.856 682.224 436.52 683.696 436.52C685.216 436.52 686.344 436.88 687.08 437.6C687.816 438.32 688.184 439.4 688.184 440.84V446.72C688.184 447.072 688.208 447.44 688.256 447.824C688.304 448.192 688.368 448.584 688.448 449H686.6ZM682.4 449.24C681.136 449.24 680.128 448.936 679.376 448.328C678.64 447.704 678.272 446.856 678.272 445.784C678.272 444.712 678.64 443.88 679.376 443.288C680.112 442.696 681.184 442.28 682.592 442.04L686.864 441.32V442.904L682.88 443.528C681.984 443.672 681.304 443.912 680.84 444.248C680.376 444.584 680.144 445.072 680.144 445.712C680.144 446.336 680.352 446.808 680.768 447.128C681.2 447.448 681.832 447.608 682.664 447.608C683.736 447.608 684.608 447.368 685.28 446.888C685.968 446.392 686.312 445.752 686.312 444.968L686.624 446.672C686.368 447.488 685.864 448.12 685.112 448.568C684.376 449.016 683.472 449.24 682.4 449.24ZM700.669 453.92V446.144L701.029 446.216C700.725 447.144 700.165 447.88 699.349 448.424C698.549 448.968 697.589 449.24 696.469 449.24C695.365 449.24 694.397 448.984 693.565 448.472C692.749 447.944 692.109 447.208 691.645 446.264C691.197 445.304 690.973 444.192 690.973 442.928C690.973 441.648 691.205 440.528 691.669 439.568C692.133 438.608 692.781 437.864 693.613 437.336C694.445 436.808 695.421 436.544 696.541 436.544C697.693 436.544 698.661 436.824 699.445 437.384C700.229 437.944 700.765 438.736 701.053 439.76L700.789 439.808V436.76H702.589V453.92H700.669ZM696.829 447.56C698.061 447.56 699.021 447.144 699.709 446.312C700.413 445.464 700.765 444.312 700.765 442.856C700.765 441.432 700.413 440.304 699.709 439.472C699.005 438.64 698.045 438.224 696.829 438.224C695.613 438.224 694.661 438.64 693.973 439.472C693.285 440.304 692.941 441.456 692.941 442.928C692.941 444.368 693.285 445.504 693.973 446.336C694.661 447.152 695.613 447.56 696.829 447.56ZM706.44 449V436.76H708.36V449H706.44ZM706.296 433.976V431.72H708.504V433.976H706.296ZM721.062 449V446.144L721.302 446.216C720.998 447.144 720.438 447.88 719.622 448.424C718.822 448.968 717.862 449.24 716.742 449.24C715.638 449.24 714.67 448.976 713.838 448.448C713.022 447.92 712.382 447.184 711.918 446.24C711.47 445.296 711.246 444.192 711.246 442.928C711.246 441.648 711.478 440.528 711.942 439.568C712.406 438.608 713.054 437.864 713.886 437.336C714.718 436.808 715.694 436.544 716.814 436.544C717.966 436.544 718.934 436.824 719.718 437.384C720.502 437.944 721.038 438.736 721.326 439.76L720.942 439.808V431.72H722.862V449H721.062ZM717.102 447.56C718.334 447.56 719.294 447.144 719.982 446.312C720.686 445.464 721.038 444.312 721.038 442.856C721.038 441.432 720.686 440.304 719.982 439.472C719.278 438.64 718.318 438.224 717.102 438.224C715.886 438.224 714.934 438.64 714.246 439.472C713.558 440.304 713.214 441.456 713.214 442.928C713.214 444.368 713.558 445.504 714.246 446.336C714.934 447.152 715.886 447.56 717.102 447.56ZM731.801 449.24C730.601 449.24 729.545 448.96 728.633 448.4C727.721 447.84 727.009 447.08 726.497 446.12C726.001 445.144 725.753 444.048 725.753 442.832C725.753 441.6 726.009 440.512 726.521 439.568C727.033 438.624 727.737 437.88 728.633 437.336C729.545 436.792 730.601 436.52 731.801 436.52C733.017 436.52 734.073 436.792 734.969 437.336C735.881 437.88 736.585 438.624 737.081 439.568C737.593 440.512 737.849 441.6 737.849 442.832C737.849 444.048 737.593 445.144 737.081 446.12C736.585 447.08 735.881 447.84 734.969 448.4C734.073 448.96 733.017 449.24 731.801 449.24ZM731.801 447.608C732.633 447.608 733.353 447.408 733.961 447.008C734.569 446.592 735.041 446.024 735.377 445.304C735.713 444.584 735.881 443.752 735.881 442.808C735.881 441.4 735.505 440.272 734.753 439.424C734.017 438.576 733.033 438.152 731.801 438.152C730.585 438.152 729.601 438.576 728.849 439.424C728.097 440.272 727.721 441.4 727.721 442.808C727.721 443.752 727.889 444.584 728.225 445.304C728.561 446.024 729.033 446.592 729.641 447.008C730.265 447.408 730.985 447.608 731.801 447.608ZM745.507 449.216C744.147 449.216 743.155 448.912 742.531 448.304C741.923 447.68 741.619 446.784 741.619 445.616V433.904L743.539 433.184V445.592C743.539 446.28 743.715 446.784 744.067 447.104C744.419 447.424 744.995 447.584 745.795 447.584C746.115 447.584 746.387 447.568 746.611 447.536C746.851 447.488 747.043 447.432 747.187 447.368V449C747.027 449.064 746.795 449.112 746.491 449.144C746.203 449.192 745.875 449.216 745.507 449.216ZM739.099 438.392V436.76H747.187V438.392H739.099ZM758.281 449V446.144L758.521 446.216C758.217 447.144 757.657 447.88 756.841 448.424C756.041 448.968 755.081 449.24 753.961 449.24C752.857 449.24 751.889 448.976 751.057 448.448C750.241 447.92 749.601 447.184 749.137 446.24C748.689 445.296 748.465 444.192 748.465 442.928C748.465 441.648 748.697 440.528 749.161 439.568C749.625 438.608 750.273 437.864 751.105 437.336C751.937 436.808 752.913 436.544 754.033 436.544C755.185 436.544 756.153 436.824 756.937 437.384C757.721 437.944 758.257 438.736 758.545 439.76L758.161 439.808V431.72H760.081V449H758.281ZM754.321 447.56C755.553 447.56 756.513 447.144 757.201 446.312C757.905 445.464 758.257 444.312 758.257 442.856C758.257 441.432 757.905 440.304 757.201 439.472C756.497 438.64 755.537 438.224 754.321 438.224C753.105 438.224 752.153 438.64 751.465 439.472C750.777 440.304 750.433 441.456 750.433 442.928C750.433 444.368 750.777 445.504 751.465 446.336C752.153 447.152 753.105 447.56 754.321 447.56ZM768.948 449.24C767.78 449.24 766.748 448.968 765.852 448.424C764.956 447.864 764.252 447.104 763.74 446.144C763.228 445.184 762.972 444.08 762.972 442.832C762.972 441.584 763.22 440.488 763.716 439.544C764.228 438.584 764.94 437.84 765.852 437.312C766.764 436.784 767.812 436.52 768.996 436.52C770.132 436.52 771.116 436.768 771.948 437.264C772.796 437.76 773.444 438.456 773.892 439.352C774.356 440.248 774.588 441.304 774.588 442.52C774.588 442.68 774.58 442.832 774.564 442.976C774.564 443.12 774.548 443.28 774.516 443.456H764.412V441.848H773.34L772.716 442.736C772.716 441.264 772.388 440.136 771.732 439.352C771.092 438.552 770.18 438.152 768.996 438.152C767.78 438.152 766.796 438.576 766.044 439.424C765.308 440.256 764.94 441.384 764.94 442.808C764.94 444.264 765.308 445.432 766.044 446.312C766.796 447.176 767.796 447.608 769.044 447.608C769.828 447.608 770.516 447.44 771.108 447.104C771.7 446.752 772.132 446.256 772.404 445.616H774.228C773.828 446.736 773.156 447.624 772.212 448.28C771.284 448.92 770.196 449.24 768.948 449.24ZM780.773 449L775.709 436.76H777.773L781.997 447.704H781.229L785.429 436.76H787.397L782.333 449H780.773Z" fill="black"/>
</svg>
