<svg width="73" height="102" viewBox="0 0 73 102" fill="none" xmlns="http://www.w3.org/2000/svg">
<g filter="url(#filter0_d_1_46)">
<rect x="24.9" y="32.4354" width="22.6898" height="36.5185" rx="9" fill="#16FF73"/>
<path d="M33.7933 26.171C34.9884 24.4763 37.5014 24.4763 38.6965 26.171L44.8401 34.8823C46.2417 36.8697 44.8204 39.6113 42.3885 39.6113H30.1013C27.6694 39.6113 26.2481 36.8697 27.6497 34.8823L33.7933 26.171Z" fill="#16FF73"/>
<path d="M33.7933 75.2183C34.9884 76.913 37.5014 76.913 38.6965 75.2183L44.8401 66.507C46.2417 64.5196 44.8204 61.778 42.3885 61.778H30.1013C27.6694 61.778 26.2481 64.5196 27.6497 66.507L33.7933 75.2183Z" fill="#16FF73"/>
</g>
<defs>
<filter id="filter0_d_1_46" x="-5.72205e-06" y="-5.72205e-06" width="72.4898" height="101.389" filterUnits="userSpaceOnUse" color-interpolation-filters="sRGB">
<feFlood flood-opacity="0" result="BackgroundImageFix"/>
<feColorMatrix in="SourceAlpha" type="matrix" values="0 0 0 0 0 0 0 0 0 0 0 0 0 0 0 0 0 0 127 0" result="hardAlpha"/>
<feOffset/>
<feGaussianBlur stdDeviation="12.45"/>
<feComposite in2="hardAlpha" operator="out"/>
<feColorMatrix type="matrix" values="0 0 0 0 0.0846153 0 0 0 0 1 0 0 0 0 0.450769 0 0 0 1 0"/>
<feBlend mode="normal" in2="BackgroundImageFix" result="effect1_dropShadow_1_46"/>
<feBlend mode="normal" in="SourceGraphic" in2="effect1_dropShadow_1_46" result="shape"/>
</filter>
</defs>
</svg>
