<svg width="165" height="51" viewBox="0 0 165 51" fill="none" xmlns="http://www.w3.org/2000/svg">
<g filter="url(#filter0_d_4_237)">
<path d="M5.30005 17.3C5.30005 10.6726 10.6726 5.29999 17.3 5.29999H147.3C153.927 5.29999 159.3 10.6726 159.3 17.3V33.3C159.3 39.9274 153.927 45.3 147.3 45.3H17.3001C10.6726 45.3 5.30005 39.9274 5.30005 33.3V17.3Z" fill="#0F130F"/>
</g>
<path d="M57.1866 32.48C55.4533 32.48 54.0666 32.0667 53.0266 31.24C51.9866 30.4133 51.3799 29.2333 51.2066 27.7H53.2666C53.3866 28.7 53.7866 29.46 54.4666 29.98C55.1466 30.5 56.0666 30.76 57.2266 30.76C58.1999 30.76 58.9333 30.58 59.4266 30.22C59.9333 29.86 60.1866 29.3467 60.1866 28.68C60.1866 28.08 60.0199 27.6067 59.6866 27.26C59.3533 26.9 58.8266 26.6067 58.1066 26.38L55.6066 25.58C54.3266 25.1667 53.3866 24.6467 52.7866 24.02C52.1866 23.3933 51.8866 22.6 51.8866 21.64C51.8866 20.8267 52.0866 20.1267 52.4866 19.54C52.8999 18.9533 53.4733 18.5 54.2066 18.18C54.9533 17.8467 55.8199 17.68 56.8066 17.68C58.3266 17.68 59.5399 18.0667 60.4466 18.84C61.3666 19.6 61.8933 20.66 62.0266 22.02H59.9666C59.8066 21.1133 59.4599 20.4533 58.9266 20.04C58.3933 19.6133 57.6599 19.4 56.7266 19.4C55.8466 19.4 55.1599 19.5733 54.6666 19.92C54.1733 20.2667 53.9266 20.7533 53.9266 21.38C53.9266 21.8867 54.0866 22.3133 54.4066 22.66C54.7399 22.9933 55.2866 23.28 56.0466 23.52L58.6666 24.36C59.8799 24.7467 60.7733 25.2733 61.3466 25.94C61.9333 26.6067 62.2266 27.4467 62.2266 28.46C62.2266 29.74 61.7866 30.7333 60.9066 31.44C60.0266 32.1333 58.7866 32.48 57.1866 32.48ZM68.8085 32.5C67.7685 32.5 66.8551 32.2733 66.0685 31.82C65.2818 31.3533 64.6685 30.72 64.2285 29.92C63.7885 29.1067 63.5685 28.1867 63.5685 27.16C63.5685 26.12 63.7885 25.2067 64.2285 24.42C64.6818 23.6333 65.2951 23.02 66.0685 22.58C66.8551 22.1267 67.7685 21.9 68.8085 21.9C69.8618 21.9 70.7818 22.1267 71.5685 22.58C72.3551 23.02 72.9618 23.6333 73.3885 24.42C73.8285 25.2067 74.0485 26.12 74.0485 27.16C74.0485 28.1867 73.8285 29.1067 73.3885 29.92C72.9618 30.72 72.3551 31.3533 71.5685 31.82C70.7818 32.2733 69.8618 32.5 68.8085 32.5ZM68.8085 30.8C69.4351 30.8 69.9751 30.6467 70.4285 30.34C70.8951 30.0333 71.2618 29.6067 71.5285 29.06C71.7951 28.5133 71.9285 27.8733 71.9285 27.14C71.9285 26.0467 71.6351 25.1867 71.0485 24.56C70.4751 23.92 69.7285 23.6 68.8085 23.6C67.9018 23.6 67.1551 23.92 66.5685 24.56C65.9951 25.2 65.7085 26.06 65.7085 27.14C65.7085 27.8733 65.8351 28.5133 66.0885 29.06C66.3551 29.6067 66.7218 30.0333 67.1885 30.34C67.6685 30.6467 68.2085 30.8 68.8085 30.8ZM76.1849 32.3V22.1H78.1649V24.5H78.2649V32.3H76.1849ZM83.4249 32.3V25.74C83.4249 25.0333 83.2449 24.5067 82.8849 24.16C82.5382 23.8133 82.0182 23.64 81.3249 23.64C80.7249 23.64 80.1916 23.7733 79.7249 24.04C79.2716 24.3067 78.9116 24.6733 78.6449 25.14C78.3916 25.6067 78.2649 26.16 78.2649 26.8L78.0049 24.36C78.3382 23.6 78.8516 23 79.5449 22.56C80.2382 22.12 81.0449 21.9 81.9649 21.9C83.0582 21.9 83.9182 22.2067 84.5449 22.82C85.1716 23.4333 85.4849 24.2467 85.4849 25.26V32.3H83.4249ZM92.5743 36.6C91.2943 36.6 90.2343 36.3067 89.3943 35.72C88.5676 35.1467 88.0676 34.38 87.8943 33.42H89.8543C89.9876 33.86 90.2809 34.2067 90.7343 34.46C91.2009 34.7133 91.8209 34.84 92.5943 34.84C93.5943 34.84 94.3409 34.5933 94.8343 34.1C95.3276 33.6067 95.5743 32.8733 95.5743 31.9V29.7L95.7543 29.74C95.5543 30.5133 95.1209 31.1267 94.4543 31.58C93.7876 32.02 92.9876 32.24 92.0543 32.24C91.1609 32.24 90.3743 32.0267 89.6943 31.6C89.0143 31.1733 88.4876 30.58 88.1143 29.82C87.7409 29.0467 87.5543 28.1467 87.5543 27.12C87.5543 26.08 87.7476 25.1667 88.1343 24.38C88.5209 23.5933 89.0609 22.9867 89.7543 22.56C90.4609 22.1333 91.2809 21.92 92.2143 21.92C93.1743 21.92 93.9676 22.1533 94.5943 22.62C95.2343 23.0733 95.6409 23.72 95.8143 24.56L95.6543 24.58V22.1H97.6343V31.88C97.6343 33.3467 97.1809 34.5 96.2743 35.34C95.3809 36.18 94.1476 36.6 92.5743 36.6ZM92.6743 30.56C93.5676 30.56 94.2809 30.2467 94.8143 29.62C95.3609 28.9933 95.6343 28.1333 95.6343 27.04C95.6343 25.9733 95.3609 25.1333 94.8143 24.52C94.2809 23.9067 93.5609 23.6 92.6543 23.6C91.7476 23.6 91.0276 23.9133 90.4943 24.54C89.9609 25.1533 89.6943 26.0067 89.6943 27.1C89.6943 28.1667 89.9609 29.0133 90.4943 29.64C91.0409 30.2533 91.7676 30.56 92.6743 30.56ZM108.985 32.5C107.999 32.5 107.125 32.32 106.365 31.96C105.619 31.6 105.012 31.08 104.545 30.4C104.092 29.7067 103.812 28.8667 103.705 27.88H105.885C106.019 28.8267 106.345 29.5467 106.865 30.04C107.385 30.52 108.079 30.76 108.945 30.76C109.745 30.76 110.385 30.54 110.865 30.1C111.345 29.66 111.585 29.0533 111.585 28.28C111.585 27.4933 111.352 26.8533 110.885 26.36C110.419 25.8667 109.752 25.62 108.885 25.62H107.265V23.92H108.825C109.599 23.92 110.199 23.7133 110.625 23.3C111.052 22.8867 111.265 22.34 111.265 21.66C111.265 20.9667 111.059 20.4267 110.645 20.04C110.232 19.64 109.639 19.44 108.865 19.44C108.145 19.44 107.525 19.6533 107.005 20.08C106.499 20.5067 106.192 21.1267 106.085 21.94H103.905C103.999 21.0733 104.259 20.3267 104.685 19.7C105.125 19.06 105.705 18.5667 106.425 18.22C107.159 17.8733 107.992 17.7 108.925 17.7C109.845 17.7 110.645 17.8533 111.325 18.16C112.019 18.4667 112.552 18.9067 112.925 19.48C113.312 20.0533 113.505 20.7267 113.505 21.5C113.505 22.1667 113.352 22.76 113.045 23.28C112.739 23.8 112.332 24.2067 111.825 24.5C111.332 24.78 110.779 24.92 110.165 24.92L110.085 24.5C110.859 24.5 111.525 24.6733 112.085 25.02C112.659 25.3533 113.099 25.8133 113.405 26.4C113.712 26.9733 113.865 27.6333 113.865 28.38C113.865 29.2067 113.652 29.9333 113.225 30.56C112.812 31.1733 112.239 31.6533 111.505 32C110.772 32.3333 109.932 32.5 108.985 32.5Z" fill="white"/>
<defs>
<filter id="filter0_d_4_237" x="4.86374e-05" y="-1.23978e-05" width="164.6" height="50.6" filterUnits="userSpaceOnUse" color-interpolation-filters="sRGB">
<feFlood flood-opacity="0" result="BackgroundImageFix"/>
<feColorMatrix in="SourceAlpha" type="matrix" values="0 0 0 0 0 0 0 0 0 0 0 0 0 0 0 0 0 0 127 0" result="hardAlpha"/>
<feOffset/>
<feGaussianBlur stdDeviation="2.65"/>
<feComposite in2="hardAlpha" operator="out"/>
<feColorMatrix type="matrix" values="0 0 0 0 0 0 0 0 0 0 0 0 0 0 0 0 0 0 1 0"/>
<feBlend mode="normal" in2="BackgroundImageFix" result="effect1_dropShadow_4_237"/>
<feBlend mode="normal" in="SourceGraphic" in2="effect1_dropShadow_4_237" result="shape"/>
</filter>
</defs>
</svg>
