<svg width="165" height="51" viewBox="0 0 165 51" fill="none" xmlns="http://www.w3.org/2000/svg">
<g filter="url(#filter0_d_4_212)">
<path d="M5.29999 17.3C5.29999 10.6726 10.6726 5.29999 17.3 5.29999H147.3C153.927 5.29999 159.3 10.6726 159.3 17.3V33.3C159.3 39.9274 153.927 45.3 147.3 45.3H17.3C10.6726 45.3 5.29999 39.9274 5.29999 33.3V17.3Z" fill="white"/>
</g>
<path d="M57.1865 32.48C55.4532 32.48 54.0665 32.0667 53.0265 31.24C51.9865 30.4133 51.3799 29.2333 51.2065 27.7H53.2665C53.3865 28.7 53.7865 29.46 54.4665 29.98C55.1465 30.5 56.0665 30.76 57.2265 30.76C58.1999 30.76 58.9332 30.58 59.4265 30.22C59.9332 29.86 60.1865 29.3467 60.1865 28.68C60.1865 28.08 60.0199 27.6067 59.6865 27.26C59.3532 26.9 58.8265 26.6067 58.1065 26.38L55.6065 25.58C54.3265 25.1667 53.3865 24.6467 52.7865 24.02C52.1865 23.3933 51.8865 22.6 51.8865 21.64C51.8865 20.8267 52.0865 20.1267 52.4865 19.54C52.8999 18.9533 53.4732 18.5 54.2065 18.18C54.9532 17.8467 55.8199 17.68 56.8065 17.68C58.3265 17.68 59.5399 18.0667 60.4465 18.84C61.3665 19.6 61.8932 20.66 62.0265 22.02H59.9665C59.8065 21.1133 59.4599 20.4533 58.9265 20.04C58.3932 19.6133 57.6599 19.4 56.7265 19.4C55.8465 19.4 55.1599 19.5733 54.6665 19.92C54.1732 20.2667 53.9265 20.7533 53.9265 21.38C53.9265 21.8867 54.0865 22.3133 54.4065 22.66C54.7399 22.9933 55.2865 23.28 56.0465 23.52L58.6665 24.36C59.8799 24.7467 60.7732 25.2733 61.3465 25.94C61.9332 26.6067 62.2265 27.4467 62.2265 28.46C62.2265 29.74 61.7865 30.7333 60.9065 31.44C60.0265 32.1333 58.7865 32.48 57.1865 32.48ZM68.8084 32.5C67.7684 32.5 66.8551 32.2733 66.0684 31.82C65.2818 31.3533 64.6684 30.72 64.2284 29.92C63.7884 29.1067 63.5684 28.1867 63.5684 27.16C63.5684 26.12 63.7884 25.2067 64.2284 24.42C64.6818 23.6333 65.2951 23.02 66.0684 22.58C66.8551 22.1267 67.7684 21.9 68.8084 21.9C69.8618 21.9 70.7818 22.1267 71.5684 22.58C72.3551 23.02 72.9618 23.6333 73.3884 24.42C73.8284 25.2067 74.0484 26.12 74.0484 27.16C74.0484 28.1867 73.8284 29.1067 73.3884 29.92C72.9618 30.72 72.3551 31.3533 71.5684 31.82C70.7818 32.2733 69.8618 32.5 68.8084 32.5ZM68.8084 30.8C69.4351 30.8 69.9751 30.6467 70.4284 30.34C70.8951 30.0333 71.2618 29.6067 71.5284 29.06C71.7951 28.5133 71.9284 27.8733 71.9284 27.14C71.9284 26.0467 71.6351 25.1867 71.0484 24.56C70.4751 23.92 69.7284 23.6 68.8084 23.6C67.9018 23.6 67.1551 23.92 66.5684 24.56C65.9951 25.2 65.7084 26.06 65.7084 27.14C65.7084 27.8733 65.8351 28.5133 66.0884 29.06C66.3551 29.6067 66.7218 30.0333 67.1884 30.34C67.6684 30.6467 68.2084 30.8 68.8084 30.8ZM76.1848 32.3V22.1H78.1648V24.5H78.2648V32.3H76.1848ZM83.4248 32.3V25.74C83.4248 25.0333 83.2448 24.5067 82.8848 24.16C82.5382 23.8133 82.0182 23.64 81.3248 23.64C80.7248 23.64 80.1915 23.7733 79.7248 24.04C79.2715 24.3067 78.9115 24.6733 78.6448 25.14C78.3915 25.6067 78.2648 26.16 78.2648 26.8L78.0048 24.36C78.3382 23.6 78.8515 23 79.5448 22.56C80.2382 22.12 81.0448 21.9 81.9648 21.9C83.0582 21.9 83.9182 22.2067 84.5448 22.82C85.1715 23.4333 85.4848 24.2467 85.4848 25.26V32.3H83.4248ZM92.5742 36.6C91.2942 36.6 90.2342 36.3067 89.3942 35.72C88.5675 35.1467 88.0675 34.38 87.8942 33.42H89.8542C89.9875 33.86 90.2809 34.2067 90.7342 34.46C91.2009 34.7133 91.8209 34.84 92.5942 34.84C93.5942 34.84 94.3409 34.5933 94.8342 34.1C95.3275 33.6067 95.5742 32.8733 95.5742 31.9V29.7L95.7542 29.74C95.5542 30.5133 95.1209 31.1267 94.4542 31.58C93.7875 32.02 92.9875 32.24 92.0542 32.24C91.1609 32.24 90.3742 32.0267 89.6942 31.6C89.0142 31.1733 88.4875 30.58 88.1142 29.82C87.7409 29.0467 87.5542 28.1467 87.5542 27.12C87.5542 26.08 87.7475 25.1667 88.1342 24.38C88.5209 23.5933 89.0609 22.9867 89.7542 22.56C90.4609 22.1333 91.2809 21.92 92.2142 21.92C93.1742 21.92 93.9675 22.1533 94.5942 22.62C95.2342 23.0733 95.6409 23.72 95.8142 24.56L95.6542 24.58V22.1H97.6342V31.88C97.6342 33.3467 97.1809 34.5 96.2742 35.34C95.3809 36.18 94.1475 36.6 92.5742 36.6ZM92.6742 30.56C93.5675 30.56 94.2809 30.2467 94.8142 29.62C95.3609 28.9933 95.6342 28.1333 95.6342 27.04C95.6342 25.9733 95.3609 25.1333 94.8142 24.52C94.2809 23.9067 93.5609 23.6 92.6542 23.6C91.7475 23.6 91.0275 23.9133 90.4942 24.54C89.9609 25.1533 89.6942 26.0067 89.6942 27.1C89.6942 28.1667 89.9609 29.0133 90.4942 29.64C91.0409 30.2533 91.7675 30.56 92.6742 30.56ZM108.985 32.5C107.998 32.5 107.125 32.32 106.365 31.96C105.618 31.6 105.012 31.08 104.545 30.4C104.092 29.7067 103.812 28.8667 103.705 27.88H105.885C106.018 28.8267 106.345 29.5467 106.865 30.04C107.385 30.52 108.078 30.76 108.945 30.76C109.745 30.76 110.385 30.54 110.865 30.1C111.345 29.66 111.585 29.0533 111.585 28.28C111.585 27.4933 111.352 26.8533 110.885 26.36C110.418 25.8667 109.752 25.62 108.885 25.62H107.265V23.92H108.825C109.598 23.92 110.198 23.7133 110.625 23.3C111.052 22.8867 111.265 22.34 111.265 21.66C111.265 20.9667 111.058 20.4267 110.645 20.04C110.232 19.64 109.638 19.44 108.865 19.44C108.145 19.44 107.525 19.6533 107.005 20.08C106.498 20.5067 106.192 21.1267 106.085 21.94H103.905C103.998 21.0733 104.258 20.3267 104.685 19.7C105.125 19.06 105.705 18.5667 106.425 18.22C107.158 17.8733 107.992 17.7 108.925 17.7C109.845 17.7 110.645 17.8533 111.325 18.16C112.018 18.4667 112.552 18.9067 112.925 19.48C113.312 20.0533 113.505 20.7267 113.505 21.5C113.505 22.1667 113.352 22.76 113.045 23.28C112.738 23.8 112.332 24.2067 111.825 24.5C111.332 24.78 110.778 24.92 110.165 24.92L110.085 24.5C110.858 24.5 111.525 24.6733 112.085 25.02C112.658 25.3533 113.098 25.8133 113.405 26.4C113.712 26.9733 113.865 27.6333 113.865 28.38C113.865 29.2067 113.652 29.9333 113.225 30.56C112.812 31.1733 112.238 31.6533 111.505 32C110.772 32.3333 109.932 32.5 108.985 32.5Z" fill="black"/>
<defs>
<filter id="filter0_d_4_212" x="-1.23978e-05" y="-1.23978e-05" width="164.6" height="50.6" filterUnits="userSpaceOnUse" color-interpolation-filters="sRGB">
<feFlood flood-opacity="0" result="BackgroundImageFix"/>
<feColorMatrix in="SourceAlpha" type="matrix" values="0 0 0 0 0 0 0 0 0 0 0 0 0 0 0 0 0 0 127 0" result="hardAlpha"/>
<feOffset/>
<feGaussianBlur stdDeviation="2.65"/>
<feComposite in2="hardAlpha" operator="out"/>
<feColorMatrix type="matrix" values="0 0 0 0 1 0 0 0 0 1 0 0 0 0 1 0 0 0 1 0"/>
<feBlend mode="normal" in2="BackgroundImageFix" result="effect1_dropShadow_4_212"/>
<feBlend mode="normal" in="SourceGraphic" in2="effect1_dropShadow_4_212" result="shape"/>
</filter>
</defs>
</svg>
