<svg width="48" height="48" viewBox="0 0 48 48" fill="none" xmlns="http://www.w3.org/2000/svg">
<path d="M24 1.5V7.125M39.91 8.09L35.9325 12.0675M46.5 24H40.875M39.91 39.91L35.9325 35.9325M24 40.875V46.5M12.0675 35.9325L8.09 39.91M7.125 24H1.5M12.0675 12.0675L8.09 8.09M33.375 24C33.375 26.4864 32.3873 28.871 30.6291 30.6291C28.871 32.3873 26.4864 33.375 24 33.375C21.5136 33.375 19.129 32.3873 17.3709 30.6291C15.6127 28.871 14.625 26.4864 14.625 24C14.625 21.5136 15.6127 19.129 17.3709 17.3709C19.129 15.6127 21.5136 14.625 24 14.625C26.4864 14.625 28.871 15.6127 30.6291 17.3709C32.3873 19.129 33.375 21.5136 33.375 24Z" stroke="white" stroke-width="3" stroke-linecap="round" stroke-linejoin="round"/>
</svg>
