<svg width="39" height="39" viewBox="0 0 39 39" fill="none" xmlns="http://www.w3.org/2000/svg">
<path d="M13.3128 19.5H25.6871M19.5 13.3128V25.6872M31.8743 7.12563C33.4994 8.75066 34.7884 10.6798 35.6678 12.803C36.5473 14.9262 37 17.2019 37 19.5C37 21.7981 36.5473 24.0738 35.6678 26.197C34.7884 28.3202 33.4994 30.2493 31.8743 31.8744C30.2493 33.4994 28.3201 34.7884 26.1969 35.6679C24.0737 36.5473 21.7981 37 19.5 37C17.2018 37 14.9262 36.5473 12.803 35.6679C10.6798 34.7884 8.75061 33.4994 7.12559 31.8744C3.8437 28.5925 1.99996 24.1413 1.99996 19.5C1.99996 14.8587 3.8437 10.4075 7.12559 7.12563C10.4075 3.84375 14.8587 2 19.5 2C24.1412 2 28.5924 3.84375 31.8743 7.12563Z" stroke="black" stroke-width="4" stroke-linecap="round" stroke-linejoin="round"/>
</svg>
